<svg width="88" height="88" viewBox="0 0 88 88" fill="none" xmlns="http://www.w3.org/2000/svg">
<path fill-rule="evenodd" clip-rule="evenodd" d="M29.6585 60.1186C38.3885 60.1186 45.4685 53.0386 45.4685 44.2986C45.4685 35.5586 38.3885 28.4986 29.6585 28.4986C20.9285 28.4986 13.8385 35.5786 13.8385 44.2986C13.8385 53.0186 20.9185 60.1186 29.6585 60.1186ZM56.0185 58.8086C60.3885 58.8086 63.9285 52.3186 63.9285 44.2986C63.9285 36.2786 60.3885 29.8186 56.0185 29.8186C51.6485 29.8186 48.1085 36.3086 48.1085 44.2986C48.1085 52.2886 51.6485 58.8086 56.0185 58.8086ZM71.8385 44.2986C71.8385 51.5886 70.6585 57.4886 69.1985 57.4886C67.7385 57.4886 66.5585 51.5886 66.5585 44.2986C66.5585 37.0086 67.7385 31.1286 69.1985 31.1286C70.6585 31.1286 71.8385 37.0286 71.8385 44.2986Z" fill="#B5FF00"/>
<path d="M44.5485 50.1986C44.2885 49.4586 44.6685 48.6386 45.4085 48.3686C46.1485 48.0986 46.9785 48.4786 47.2485 49.2186C47.5185 49.9586 47.1285 50.7786 46.3885 51.0486C45.6485 51.3186 44.8185 50.9386 44.5485 50.1986Z" fill="#B5FF00"/>
<path d="M43.7185 58.6986C43.6385 58.4786 43.7485 58.2386 43.9785 58.1586C44.1885 58.0786 44.4285 58.1886 44.5185 58.4086C44.5985 58.6286 44.4885 58.8686 44.2585 58.9486C44.0485 59.0286 43.8085 58.9186 43.7185 58.6986Z" fill="#B5FF00"/>
<path d="M61.6085 65.9486C61.5285 65.7286 61.6385 65.4886 61.8685 65.4086C62.0785 65.3286 62.3185 65.4386 62.4085 65.6586C62.4885 65.8786 62.3785 66.1186 62.1485 66.1986C61.9385 66.2786 61.6985 66.1686 61.6085 65.9486Z" fill="#B5FF00"/>
<path d="M56.8885 66.7686C56.8085 66.5486 56.9185 66.3086 57.1385 66.2286C57.3585 66.1486 57.5985 66.2586 57.6785 66.4786C57.7485 66.6986 57.6485 66.9386 57.4185 67.0186C57.2085 67.0986 56.9585 66.9886 56.8785 66.7686H56.8885Z" fill="#B5FF00"/>
<path d="M59.1785 43.1086C59.0385 42.7186 59.2385 42.2886 59.6285 42.1386C60.0285 41.9986 60.4485 42.1986 60.5985 42.5886C60.7385 42.9786 60.5285 43.4086 60.1485 43.5586C59.7485 43.6986 59.3185 43.4986 59.1785 43.1086Z" fill="#B5FF00"/>
<path d="M33.5685 30.9086C33.4985 30.7386 33.5885 30.5386 33.7685 30.4786C33.9385 30.4186 34.1385 30.5086 34.1985 30.6786C34.2685 30.8486 34.1785 31.0486 33.9985 31.1086C33.8285 31.1686 33.6285 31.0786 33.5685 30.9086Z" fill="#B5FF00"/>
<path d="M42.0285 32.4786C41.9585 32.3086 42.0485 32.1086 42.2285 32.0486C42.3985 31.9886 42.5985 32.0786 42.6685 32.2486C42.7285 32.4186 42.6385 32.6186 42.4585 32.6786C42.2885 32.7386 42.0985 32.6486 42.0285 32.4786Z" fill="#B5FF00"/>
<path d="M34.5585 41.9586C34.4885 41.7886 34.5785 41.5886 34.7585 41.5286C34.9285 41.4686 35.1285 41.5586 35.1985 41.7286C35.2585 41.8986 35.1685 42.0986 34.9885 42.1586C34.8185 42.2186 34.6185 42.1286 34.5585 41.9586Z" fill="#B5FF00"/>
<path d="M7.01851 70.1286C6.95851 69.9586 7.04851 69.7586 7.22851 69.6986C7.39851 69.6386 7.58851 69.7286 7.65851 69.8986C7.72851 70.0686 7.63851 70.2686 7.45851 70.3286C7.28851 70.3886 7.08851 70.2986 7.01851 70.1286Z" fill="#B5FF00"/>
<path d="M8.72851 66.4786C8.65851 66.3086 8.74851 66.1086 8.93851 66.0486C9.10851 65.9886 9.29851 66.0786 9.36851 66.2486C9.43851 66.4186 9.34851 66.6186 9.16851 66.6786C8.98851 66.7386 8.79851 66.6486 8.72851 66.4786Z" fill="#B5FF00"/>
<path d="M17.5185 70.4286C17.4585 70.2586 17.5485 70.0586 17.7285 69.9986C17.8985 69.9386 18.0885 70.0286 18.1585 70.1986C18.2285 70.3686 18.1385 70.5686 17.9585 70.6286C17.7885 70.6886 17.5885 70.5986 17.5185 70.4286Z" fill="#B5FF00"/>
<path d="M37.3585 60.9186C37.2885 60.7486 37.3785 60.5486 37.5585 60.4886C37.7285 60.4286 37.9285 60.5186 37.9885 60.6886C38.0585 60.8586 37.9685 61.0586 37.7885 61.1186C37.6185 61.1786 37.4185 61.0886 37.3585 60.9186Z" fill="#B5FF00"/>
<path d="M56.5485 33.4586C56.4485 33.1986 56.5885 32.9086 56.8585 32.8186C57.1185 32.7286 57.3985 32.8586 57.4985 33.1186C57.5985 33.3786 57.4585 33.6686 57.1885 33.7586C56.9285 33.8486 56.6385 33.7186 56.5485 33.4586Z" fill="#B5FF00"/>
<path d="M30.3085 44.5686C30.2085 44.3086 30.3485 44.0186 30.6185 43.9286C30.8785 43.8386 31.1685 43.9686 31.2585 44.2286C31.3585 44.4886 31.2185 44.7786 30.9585 44.8686C30.6985 44.9586 30.4085 44.8286 30.3085 44.5686Z" fill="#B5FF00"/>
<path d="M44.1385 44.6386C44.0685 44.4186 44.1685 44.1786 44.3985 44.0986C44.6085 44.0186 44.8585 44.1286 44.9385 44.3486C45.0185 44.5686 44.9085 44.8086 44.6885 44.8886C44.4685 44.9686 44.2285 44.8586 44.1485 44.6386H44.1385Z" fill="#B5FF00"/>
<path d="M62.2585 26.7386C61.9985 25.9986 62.3785 25.1786 63.1185 24.9086C63.8685 24.6386 64.6885 25.0186 64.9585 25.7586C65.2285 26.4986 64.8385 27.3186 64.0985 27.5886C63.3585 27.8586 62.5285 27.4786 62.2585 26.7386Z" fill="#B5FF00"/>
<path d="M61.4285 35.2486C61.3485 35.0286 61.4585 34.7886 61.6885 34.7086C61.8985 34.6286 62.1385 34.7386 62.2285 34.9586C62.3085 35.1786 62.1985 35.4186 61.9685 35.4986C61.7585 35.5786 61.5185 35.4686 61.4285 35.2486Z" fill="#B5FF00"/>
<path d="M75.5385 29.2386C75.4685 29.0186 75.5685 28.7786 75.7985 28.6986C76.0085 28.6186 76.2585 28.7286 76.3385 28.9486C76.4185 29.1686 76.3085 29.4086 76.0885 29.4886C75.8685 29.5686 75.6285 29.4586 75.5485 29.2386H75.5385Z" fill="#B5FF00"/>
<path d="M79.3085 42.4986C79.2285 42.2786 79.3385 42.0386 79.5685 41.9586C79.7785 41.8786 80.0185 41.9886 80.1085 42.2086C80.1885 42.4286 80.0785 42.6686 79.8585 42.7486C79.6385 42.8286 79.3985 42.7186 79.3185 42.4986H79.3085Z" fill="#B5FF00"/>
<path d="M74.5985 43.3086C74.5185 43.0886 74.6285 42.8486 74.8485 42.7686C75.0685 42.6886 75.3085 42.7986 75.3885 43.0186C75.4585 43.2386 75.3585 43.4786 75.1285 43.5586C74.9185 43.6386 74.6685 43.5286 74.5885 43.3086H74.5985Z" fill="#B5FF00"/>
<path d="M76.8885 19.6586C76.7485 19.2686 76.9485 18.8386 77.3385 18.6886C77.7385 18.5486 78.1585 18.7486 78.3085 19.1386C78.4485 19.5286 78.2385 19.9586 77.8585 20.1086C77.4585 20.2486 77.0285 20.0486 76.8885 19.6586Z" fill="#B5FF00"/>
<path d="M64.5385 10.3986C64.4585 10.1786 64.5685 9.9386 64.7885 9.8586C65.0085 9.7786 65.2485 9.8886 65.3285 10.1086C65.3985 10.3286 65.2985 10.5686 65.0685 10.6486C64.8585 10.7286 64.6085 10.6186 64.5285 10.3986H64.5385Z" fill="#B5FF00"/>
<path d="M51.2785 7.4486C51.2085 7.2786 51.2985 7.0786 51.4785 7.0186C51.6485 6.9586 51.8485 7.0486 51.9185 7.2186C51.9785 7.3886 51.8885 7.5886 51.7085 7.6486C51.5385 7.7086 51.3385 7.6186 51.2785 7.4486Z" fill="#B5FF00"/>
<path d="M59.7385 9.0186C59.6685 8.8486 59.7585 8.6486 59.9385 8.5886C60.1185 8.5286 60.3085 8.6186 60.3785 8.7886C60.4385 8.9586 60.3485 9.1586 60.1685 9.2186C59.9985 9.2786 59.8085 9.1886 59.7385 9.0186Z" fill="#B5FF00"/>
<path d="M52.2585 18.4986C52.1885 18.3286 52.2785 18.1286 52.4585 18.0686C52.6285 18.0086 52.8285 18.0986 52.8985 18.2686C52.9585 18.4386 52.8685 18.6386 52.6885 18.6986C52.5185 18.7586 52.3285 18.6686 52.2585 18.4986Z" fill="#B5FF00"/>
<path d="M24.7185 46.6786C24.6585 46.5086 24.7485 46.3086 24.9285 46.2486C25.0985 46.1886 25.2885 46.2786 25.3585 46.4486C25.4285 46.6186 25.3385 46.8186 25.1585 46.8786C24.9885 46.9386 24.7885 46.8486 24.7185 46.6786Z" fill="#B5FF00"/>
<path d="M26.4385 43.0186C26.3685 42.8486 26.4585 42.6486 26.6485 42.5886C26.8185 42.5286 27.0085 42.6186 27.0785 42.7886C27.1485 42.9586 27.0585 43.1586 26.8785 43.2186C26.6985 43.2786 26.5085 43.1886 26.4385 43.0186Z" fill="#B5FF00"/>
<path d="M35.2285 46.9686C35.1685 46.7986 35.2585 46.5986 35.4385 46.5386C35.6085 46.4786 35.7985 46.5686 35.8685 46.7386C35.9385 46.9086 35.8485 47.1086 35.6685 47.1686C35.4985 47.2286 35.2985 47.1386 35.2285 46.9686Z" fill="#B5FF00"/>
<path d="M74.2585 9.9986C74.1585 9.7386 74.2985 9.4486 74.5685 9.3586C74.8285 9.2686 75.1185 9.3986 75.2085 9.6586C75.3085 9.9186 75.1685 10.2086 74.8985 10.2986C74.6385 10.3886 74.3485 10.2586 74.2585 9.9986Z" fill="#B5FF00"/>
<path d="M48.0185 21.1086C47.9185 20.8486 48.0585 20.5586 48.3285 20.4686C48.5885 20.3786 48.8785 20.5086 48.9685 20.7686C49.0685 21.0286 48.9285 21.3186 48.6685 21.4086C48.4085 21.4986 48.1185 21.3686 48.0185 21.1086Z" fill="#B5FF00"/>
<path d="M61.8485 21.1786C61.7785 20.9586 61.8785 20.7186 62.1085 20.6386C62.3185 20.5586 62.5685 20.6686 62.6485 20.8886C62.7285 21.1086 62.6185 21.3486 62.3985 21.4286C62.1785 21.5086 61.9385 21.3986 61.8585 21.1786H61.8485Z" fill="#B5FF00"/>
</svg>

