<svg width="1440" height="1027" viewBox="0 0 1440 1027" fill="none" xmlns="http://www.w3.org/2000/svg">
<path d="M1563.14 353.74C1560.21 344.942 1551.54 304.253 1544.82 284.092C1539.33 267.596 1547.05 270.386 1559.47 273.095C1571.9 275.804 1635.8 281.938 1654.73 284.092C1678.54 286.801 1676.71 285.925 1680.37 296.922C1686.85 316.362 1696.46 354.616 1704.18 373.901C1709.33 386.731 1700.77 384.407 1684.44 382.189C1663.88 379.4 1622.16 373.901 1583.69 370.236C1566.8 368.626 1566.8 364.737 1563.14 353.74Z" fill="url(#paint0_linear_34_230)" fill-opacity="0.2"/>
<path d="M997.124 755.132C1007.48 760.644 1019.88 756.716 1019.88 747.551C1019.88 733.202 1009.56 726.648 1015.23 700.147L1058.35 498.284C1080.94 528.221 1130.8 598.669 1138.17 608.505C1143.66 615.836 1143.66 619.502 1154.65 619.502C1165.65 619.502 1255.52 626.44 1275.55 628.666C1292.04 630.499 1287.11 628.098 1292.04 615.836C1302.25 590.426 1346.54 471.402 1367.91 410.307C1380.75 477.633 1435.5 797.026 1455.06 914.59C1458.72 936.584 1461.46 935.836 1475.21 938.168C1488.97 940.499 1603.15 952.83 1615.98 952.83C1628.8 952.83 1628.8 952.83 1626.97 938.168C1625.14 923.505 1461.33 159.207 1457.67 148.21C1454.01 137.213 1454.01 131.715 1443.01 129.882C1434.91 128.531 1359.81 111.803 1348.82 108.137C1338.39 104.66 1333.11 104.222 1325.78 120.717C1319.92 133.914 1240.3 340.048 1201.22 441.466L1098.65 287.507C1083.99 265.512 1089.49 258.181 1067.51 260.014C1045.52 261.847 963.095 271.011 952.105 274.677C941.114 278.342 945.446 282.434 941.114 300.337C934.844 326.246 860.517 670.572 853.19 688.9C845.863 707.229 851.562 708.238 860.517 710.894C879.891 716.643 959.714 735.221 997.124 755.132Z" fill="url(#paint1_linear_34_230)" fill-opacity="0.2"/>
<path d="M-386.899 852.026C-382.503 844.694 -275.936 663.492 -270.441 652.494C-264.945 641.497 -263.114 645.163 -255.787 650.662C-243.173 660.127 -180.685 692.817 -153.208 709.313C-142.218 715.911 -143.587 714.737 -149.545 725.808C-181.882 785.904 -214.875 845.428 -244.022 907.011C-256.3 928.852 -252.123 954.914 -263.114 951.249C-285.095 943.917 -250.03 919.241 -310.739 899.575C-337.281 890.976 -365.703 881.65 -379.572 877.685C-405.216 870.354 -392.394 861.19 -386.899 852.026Z" fill="url(#paint2_linear_34_230)" fill-opacity="0.2"/>
<path d="M290.851 866.689C293.782 860.824 368.842 629.03 407.309 509.283C410.253 500.119 407.309 494.621 421.963 496.454C436.617 498.286 514.325 505.618 528.979 509.283C543.633 512.949 550.96 509.283 547.297 527.612C544.499 541.609 481.383 753.817 445.915 872.436C431.118 921.923 440.28 916.419 405.477 903.595C396.712 900.365 321.216 877.935 301.067 877.935C280.918 877.935 287.187 874.02 290.851 866.689Z" fill="url(#paint3_linear_34_230)" fill-opacity="0.2"/>
<path d="M436.617 410.558C443.944 391.497 460.594 339.44 466.699 318.667C468.87 311.336 466.249 304.002 489.738 307.919C500.728 309.752 559.344 315.25 601.475 318.916C616.074 320.186 612.604 326.247 610.634 333.579C608.255 342.429 594.148 392.23 586.821 414.224C577.687 441.642 581.325 469.21 572.167 469.21C559.344 469.21 570.335 447.882 542.859 445.383C522.709 443.55 465.15 434.385 440.28 434.385C423.794 434.385 427.458 434.385 436.617 410.558Z" fill="url(#paint4_linear_34_230)" fill-opacity="0.2"/>
<path d="M693.062 229.106C696.726 229.106 696.537 228.54 695.669 234.356C694.801 240.172 585.763 729.225 578.437 747.554C569.785 769.197 570.335 782.627 586.821 782.627C603.306 782.627 614.82 783.75 624.23 787.01C640.116 792.513 663.744 799.962 684.678 804.372C719.482 811.703 709.548 837.612 722.371 837.612C733.361 837.612 727.866 815.618 732.304 791.542C732.863 788.51 755.208 701.509 781.761 589.929C818.348 436.185 862.068 243.915 864.19 234.356C867.391 219.942 864.19 222.767 878.07 221.775C903.714 219.942 946.902 216.525 993.47 214.444C1022.62 213.141 1030.11 208.945 1030.11 240.104C1030.11 252.934 1042.93 258.432 1042.93 238.271C1042.93 187.94 1044.76 136.882 1044.76 86.1443C1044.76 69.6487 1048.42 67.8158 1027.22 67.8158C997.908 67.8158 811.069 74.8984 765.276 76.7313L761.066 76.8998C687.123 79.8592 613.868 82.7911 535.532 86.1443C517.214 86.9284 517.214 87.7319 517.214 106.082V106.306C517.214 131.966 520.878 186.951 520.878 218.109C520.878 233.223 519.046 236.189 535.532 236.189C552.017 236.189 658.259 229.106 693.062 229.106Z" fill="url(#paint5_linear_34_230)" fill-opacity="0.2"/>
<path d="M609.576 831.865C602.249 826 606.523 818.424 609.576 815.369C613.367 804.372 624.23 815.369 624.23 826.366C624.23 837.363 618.735 839.196 609.576 831.865Z" fill="url(#paint6_linear_34_230)" fill-opacity="0.2"/>
<path d="M-24.9861 722.142C40.9571 770.529 115 827.949 122.327 835.529C129.654 843.11 133.318 855.039 133.318 890.764V1002.32C133.318 1016.73 134.05 1026.15 144.308 1026.15C157.13 1026.15 149.803 989.738 149.803 958.579V885.266C149.803 863.532 153.003 841.73 165.516 822.949C169.18 817.45 228.569 729.225 241.391 720.06C254.213 710.895 245.669 708.221 235.896 701.731C153.467 646.995 83.0875 606.673 10.59 555.104C39.1253 548.021 138.279 516.547 191.161 491.401C265.028 456.277 350.582 397.541 382.436 298.505C433.725 139.048 316.493 34.5744 259.709 14.4131C202.924 -5.74821 138.813 -7.58106 3.263 27.2431C-91.9577 51.7062 -178.521 74.4358 -224.14 87.9767C-243.462 93.7117 -241.133 93.4752 -257.619 97.1409C-264.772 98.7313 -264.946 98.9738 -264.946 106.305C-264.946 115.469 -261.283 197.948 -261.283 208.945C-261.283 219.942 -259.339 216.437 -246.629 212.61C-238.784 210.249 32.5711 139.046 111.337 118.885C190.102 98.7238 247.945 139.296 258.936 196.115C269.926 252.933 252.382 276.51 211.31 315.25C170.239 353.99 71.0379 392.229 -4.06403 417.639C0.210083 406.031 12.4218 374.751 27.0758 342.493C45.3934 302.17 65.4742 256.307 71.0379 247.185C77.5922 236.437 74.5081 237.029 62.9382 236.437C27.0758 234.605 -35.9767 230.939 -55.3532 227.024C-62.3497 225.61 -60.8886 225.44 -65.2848 236.437C-79.9388 273.094 -228.311 571.849 -233.806 581.013C-239.302 590.177 -235.125 586.438 -230.143 590.177C-223.589 595.095 -107.415 661.658 -24.9861 722.142Z" fill="url(#paint7_linear_34_230)" fill-opacity="0.2"/>
<path d="M103.236 872.435C103.236 880.533 100.339 887.098 92.2459 887.098C84.1527 887.098 77.5919 880.533 77.5919 872.435C77.5919 864.337 84.1527 857.773 92.2459 857.773C100.339 857.773 103.236 864.337 103.236 872.435Z" fill="url(#paint8_linear_34_230)" fill-opacity="0.2"/>
<path d="M231.269 522.977C226.148 523.459 221.824 522.016 221.342 516.892C220.86 511.768 224.621 507.223 229.742 506.74C234.863 506.258 239.405 510.021 239.887 515.145C240.369 520.269 236.39 522.494 231.269 522.977Z" fill="url(#paint9_linear_34_230)" fill-opacity="0.2"/>
<path d="M1685.86 791.79C1685.86 797.864 1683.8 802.787 1678.01 802.787C1672.23 802.787 1667.55 797.864 1667.55 791.79C1667.55 785.717 1672.23 780.793 1678.01 780.793C1683.8 780.793 1685.86 785.717 1685.86 791.79Z" fill="url(#paint10_linear_34_230)" fill-opacity="0.2"/>
<path d="M1414.76 885.264C1414.76 894.375 1411.87 901.76 1403.77 901.76C1395.68 901.76 1389.12 894.375 1389.12 885.264C1389.12 876.154 1395.68 868.769 1403.77 868.769C1411.87 868.769 1414.76 876.154 1414.76 885.264Z" fill="url(#paint11_linear_34_230)" fill-opacity="0.2"/>
<path d="M1263.25 138.475C1268.65 141.248 1272.08 145.339 1269.44 150.485C1266.8 155.631 1260.28 157.554 1254.88 154.781C1249.48 152.008 1247.24 145.588 1249.88 140.442C1252.52 135.296 1257.85 135.702 1263.25 138.475Z" fill="url(#paint12_linear_34_230)" fill-opacity="0.2"/>
<path d="M1652.95 734.229C1650.2 726.829 1607.95 542.878 1588.84 448.305C1585.12 429.881 1587 430.28 1605.27 432.552C1623.54 434.825 1684.03 439.884 1704.24 442.806C1722.37 445.428 1718.9 439.173 1726.21 460.845C1731.18 475.569 1772.43 639.234 1794.65 732.142C1799.15 750.93 1801.33 747.059 1810.48 754.39C1819.64 761.722 1817.92 767.067 1801.33 765.387C1777.56 762.982 1698.75 751.029 1674.93 748.892C1656.69 747.254 1656.4 743.479 1652.95 734.229Z" fill="url(#paint13_linear_34_230)" fill-opacity="0.2"/>
<defs>
<linearGradient id="paint0_linear_34_230" x1="1706.18" y1="410.31" x2="1697.3" y2="779.356" gradientUnits="userSpaceOnUse">
<stop stop-color="#47FEFE"/>
<stop offset="1" stop-color="#B9FF57"/>
</linearGradient>
<linearGradient id="paint1_linear_34_230" x1="1706.18" y1="410.31" x2="1697.3" y2="779.356" gradientUnits="userSpaceOnUse">
<stop stop-color="#47FEFE"/>
<stop offset="1" stop-color="#B9FF57"/>
</linearGradient>
<linearGradient id="paint2_linear_34_230" x1="1706.18" y1="410.31" x2="1697.3" y2="779.356" gradientUnits="userSpaceOnUse">
<stop stop-color="#47FEFE"/>
<stop offset="1" stop-color="#B9FF57"/>
</linearGradient>
<linearGradient id="paint3_linear_34_230" x1="1706.18" y1="410.31" x2="1697.3" y2="779.356" gradientUnits="userSpaceOnUse">
<stop stop-color="#47FEFE"/>
<stop offset="1" stop-color="#B9FF57"/>
</linearGradient>
<linearGradient id="paint4_linear_34_230" x1="1706.18" y1="410.31" x2="1697.3" y2="779.356" gradientUnits="userSpaceOnUse">
<stop stop-color="#47FEFE"/>
<stop offset="1" stop-color="#B9FF57"/>
</linearGradient>
<linearGradient id="paint5_linear_34_230" x1="1706.18" y1="410.31" x2="1697.3" y2="779.356" gradientUnits="userSpaceOnUse">
<stop stop-color="#47FEFE"/>
<stop offset="1" stop-color="#B9FF57"/>
</linearGradient>
<linearGradient id="paint6_linear_34_230" x1="1706.18" y1="410.31" x2="1697.3" y2="779.356" gradientUnits="userSpaceOnUse">
<stop stop-color="#47FEFE"/>
<stop offset="1" stop-color="#B9FF57"/>
</linearGradient>
<linearGradient id="paint7_linear_34_230" x1="1706.18" y1="410.31" x2="1697.3" y2="779.356" gradientUnits="userSpaceOnUse">
<stop stop-color="#47FEFE"/>
<stop offset="1" stop-color="#B9FF57"/>
</linearGradient>
<linearGradient id="paint8_linear_34_230" x1="1706.18" y1="410.31" x2="1697.3" y2="779.356" gradientUnits="userSpaceOnUse">
<stop stop-color="#47FEFE"/>
<stop offset="1" stop-color="#B9FF57"/>
</linearGradient>
<linearGradient id="paint9_linear_34_230" x1="1706.18" y1="410.31" x2="1697.3" y2="779.356" gradientUnits="userSpaceOnUse">
<stop stop-color="#47FEFE"/>
<stop offset="1" stop-color="#B9FF57"/>
</linearGradient>
<linearGradient id="paint10_linear_34_230" x1="1706.18" y1="410.31" x2="1697.3" y2="779.356" gradientUnits="userSpaceOnUse">
<stop stop-color="#47FEFE"/>
<stop offset="1" stop-color="#B9FF57"/>
</linearGradient>
<linearGradient id="paint11_linear_34_230" x1="1706.18" y1="410.31" x2="1697.3" y2="779.356" gradientUnits="userSpaceOnUse">
<stop stop-color="#47FEFE"/>
<stop offset="1" stop-color="#B9FF57"/>
</linearGradient>
<linearGradient id="paint12_linear_34_230" x1="1706.18" y1="410.31" x2="1697.3" y2="779.356" gradientUnits="userSpaceOnUse">
<stop stop-color="#47FEFE"/>
<stop offset="1" stop-color="#B9FF57"/>
</linearGradient>
<linearGradient id="paint13_linear_34_230" x1="1706.18" y1="410.31" x2="1697.3" y2="779.356" gradientUnits="userSpaceOnUse">
<stop stop-color="#47FEFE"/>
<stop offset="1" stop-color="#B9FF57"/>
</linearGradient>
</defs>
</svg>
