<svg width="88" height="88" viewBox="0 0 88 88" fill="none" xmlns="http://www.w3.org/2000/svg">
<g clip-path="url(#clip0_63_4522)">
<path d="M62.3271 26.8886C58.5571 25.2686 54.5271 24.1186 50.3171 23.4386C49.7971 24.2986 49.1971 25.4286 48.7771 26.3486C44.2971 25.7286 39.8571 25.7286 35.4671 26.3486C35.0471 25.4286 34.4271 24.2986 33.9071 23.4386C29.6871 24.1086 25.6571 25.2686 21.8871 26.8886C14.2771 37.3586 12.2171 47.5686 13.2471 57.6386C18.2871 61.0886 23.1771 63.1586 27.9771 64.5286C29.1671 63.0486 30.2171 61.4586 31.1371 59.7886C29.3971 59.1986 27.7371 58.4386 26.1671 57.5786C26.5871 57.3086 26.9871 57.0086 27.3871 56.7186C36.9671 60.7886 47.3771 60.7886 56.8471 56.7186C57.2471 57.0186 57.6571 57.3086 58.0671 57.5786C56.4871 58.4386 54.8271 59.1986 53.0871 59.7886C53.9971 61.4586 55.0471 63.0486 56.2471 64.5286C61.0571 63.1786 65.9471 61.0786 70.9871 57.6386C72.1971 45.9786 68.9171 35.8486 62.3271 26.8886ZM32.4471 51.4486C29.5671 51.4486 27.2171 48.9986 27.2171 46.0386C27.2171 43.0786 29.5271 40.5986 32.4471 40.5986C35.3671 40.5986 37.7271 43.0486 37.6871 46.0386C37.6871 48.9986 35.3771 51.4486 32.4471 51.4486ZM51.7971 51.4486C48.9171 51.4486 46.5671 48.9986 46.5671 46.0386C46.5671 43.0786 48.8771 40.5986 51.7971 40.5986C54.7171 40.5986 57.0871 43.0486 57.0371 46.0386C57.0371 48.9986 54.7271 51.4486 51.7971 51.4486Z" fill="#B5FF00"/>
<path d="M52.8871 72.9386C52.5971 72.1186 53.0171 71.1986 53.8471 70.8986C54.6771 70.5986 55.5971 71.0186 55.8971 71.8486C56.1971 72.6686 55.7671 73.5886 54.9371 73.8886C54.1071 74.1886 53.1871 73.7686 52.8871 72.9386Z" fill="#B5FF00"/>
<path d="M51.9571 82.4186C51.8671 82.1786 51.9971 81.9086 52.2371 81.8186C52.4771 81.7286 52.7471 81.8586 52.8371 82.0986C52.9271 82.3386 52.7971 82.6086 52.5571 82.6986C52.3171 82.7886 52.0471 82.6586 51.9571 82.4186Z" fill="#B5FF00"/>
<path d="M84.7771 16.6286C84.6871 16.3886 84.8171 16.1186 85.0571 16.0286C85.2971 15.9386 85.5671 16.0686 85.6571 16.3086C85.7471 16.5486 85.6171 16.8186 85.3771 16.9086C85.1371 16.9986 84.8671 16.8686 84.7771 16.6286Z" fill="#B5FF00"/>
<path d="M79.5271 17.5386C79.4371 17.2986 79.5671 17.0286 79.8071 16.9386C80.0571 16.8486 80.3171 16.9786 80.4171 17.2186C80.4971 17.4586 80.3771 17.7286 80.1371 17.8186C79.8971 17.9086 79.6271 17.7786 79.5371 17.5386H79.5271Z" fill="#B5FF00"/>
<path d="M69.1971 65.0386C69.0371 64.5986 69.2571 64.1186 69.7071 63.9586C70.1471 63.7986 70.6271 64.0286 70.7871 64.4586C70.9471 64.8986 70.7171 65.3786 70.2771 65.5386C69.8371 65.6986 69.3471 65.4686 69.1971 65.0386Z" fill="#B5FF00"/>
<path d="M40.6471 51.4386C40.5771 51.2486 40.6771 51.0286 40.8671 50.9586C41.0571 50.8886 41.2771 50.9886 41.3471 51.1786C41.4171 51.3686 41.3171 51.5886 41.1271 51.6586C40.9371 51.7286 40.7171 51.6286 40.6471 51.4386Z" fill="#B5FF00"/>
<path d="M50.0771 53.1886C50.0071 52.9986 50.1071 52.7786 50.2971 52.7086C50.4871 52.6386 50.7071 52.7386 50.7871 52.9286C50.8471 53.1186 50.7471 53.3386 50.5571 53.4086C50.3671 53.4786 50.1571 53.3786 50.0771 53.1886Z" fill="#B5FF00"/>
<path d="M41.7471 63.7586C41.6771 63.5686 41.7771 63.3486 41.9671 63.2786C42.1571 63.2086 42.3771 63.3086 42.4571 63.4986C42.5171 63.6886 42.4171 63.9086 42.2271 63.9786C42.0371 64.0486 41.8171 63.9486 41.7471 63.7586Z" fill="#B5FF00"/>
<path d="M23.9371 21.2886C23.8771 21.0986 23.9771 20.8786 24.1671 20.8086C24.3571 20.7386 24.5671 20.8386 24.6471 21.0286C24.7271 21.2186 24.6171 21.4386 24.4271 21.5086C24.2371 21.5786 24.0171 21.4786 23.9371 21.2886Z" fill="#B5FF00"/>
<path d="M25.8471 17.2086C25.7771 17.0186 25.8771 16.7986 26.0771 16.7286C26.2671 16.6586 26.4771 16.7586 26.5571 16.9486C26.6271 17.1386 26.5271 17.3586 26.3371 17.4286C26.1371 17.4986 25.9271 17.3986 25.8471 17.2086Z" fill="#B5FF00"/>
<path d="M35.6471 21.6086C35.5871 21.4186 35.6871 21.1986 35.8771 21.1286C36.0671 21.0586 36.2771 21.1586 36.3571 21.3486C36.4371 21.5386 36.3271 21.7586 36.1371 21.8286C35.9471 21.8986 35.7271 21.7986 35.6471 21.6086Z" fill="#B5FF00"/>
<path d="M44.8671 84.8886C44.7971 84.6986 44.8971 84.4786 45.0871 84.4086C45.2771 84.3386 45.4971 84.4386 45.5671 84.6286C45.6371 84.8186 45.5371 85.0386 45.3471 85.1086C45.1571 85.1786 44.9371 85.0786 44.8671 84.8886Z" fill="#B5FF00"/>
<path d="M66.2571 54.2786C66.1471 53.9886 66.3071 53.6686 66.5971 53.5586C66.8771 53.4486 67.2071 53.5986 67.3171 53.8886C67.4271 54.1786 67.2671 54.4986 66.9771 54.6086C66.6971 54.7186 66.3571 54.5686 66.2571 54.2786Z" fill="#B5FF00"/>
<path d="M37.0171 66.6686C36.9071 66.3786 37.0671 66.0586 37.3571 65.9486C37.6371 65.8386 37.9771 65.9886 38.0771 66.2786C38.1871 66.5686 38.0271 66.8886 37.7471 66.9986C37.4571 67.1086 37.1271 66.9586 37.0171 66.6686Z" fill="#B5FF00"/>
<path d="M52.4271 66.7486C52.3471 66.5086 52.4671 66.2386 52.7071 66.1486C52.9471 66.0586 53.2171 66.1886 53.3071 66.4286C53.3971 66.6686 53.2671 66.9386 53.0271 67.0286C52.7771 67.1186 52.5171 66.9886 52.4171 66.7486H52.4271Z" fill="#B5FF00"/>
<path d="M72.6171 46.7886C72.3271 45.9686 72.7471 45.0486 73.5771 44.7486C74.4171 44.4486 75.3271 44.8686 75.6271 45.6986C75.9271 46.5186 75.4971 47.4386 74.6671 47.7386C73.8371 48.0386 72.9171 47.6086 72.6171 46.7886Z" fill="#B5FF00"/>
<path d="M71.6971 56.2786C71.6071 56.0386 71.7371 55.7686 71.9771 55.6786C72.2171 55.5886 72.4871 55.7186 72.5771 55.9586C72.6671 56.1986 72.5371 56.4686 72.2971 56.5586C72.0571 56.6486 71.7871 56.5186 71.6971 56.2786Z" fill="#B5FF00"/>
<path d="M87.4271 49.5786C87.3471 49.3386 87.4671 49.0686 87.7071 48.9786C87.9471 48.8886 88.2171 49.0186 88.3071 49.2586C88.3971 49.4986 88.2671 49.7686 88.0271 49.8586C87.7771 49.9486 87.5171 49.8186 87.4171 49.5786H87.4271Z" fill="#B5FF00"/>
<path d="M91.6271 64.3586C91.5371 64.1186 91.6671 63.8486 91.9071 63.7586C92.1471 63.6686 92.4171 63.7986 92.5071 64.0386C92.5971 64.2786 92.4671 64.5486 92.2271 64.6386C91.9771 64.7286 91.7171 64.5986 91.6171 64.3586H91.6271Z" fill="#B5FF00"/>
<path d="M86.3671 65.2686C86.2771 65.0286 86.4071 64.7586 86.6471 64.6686C86.8971 64.5786 87.1571 64.7086 87.2571 64.9486C87.3371 65.1886 87.2171 65.4586 86.9771 65.5486C86.7371 65.6386 86.4671 65.5086 86.3771 65.2686H86.3671Z" fill="#B5FF00"/>
<path d="M88.9271 38.8986C88.7671 38.4586 88.9871 37.9786 89.4371 37.8186C89.8771 37.6586 90.3571 37.8886 90.5171 38.3186C90.6771 38.7586 90.4471 39.2386 90.0071 39.3986C89.5671 39.5586 89.0771 39.3286 88.9271 38.8986Z" fill="#B5FF00"/>
<path d="M75.1671 28.5786C75.0771 28.3386 75.2071 28.0686 75.4471 27.9786C75.6971 27.8886 75.9571 28.0186 76.0571 28.2586C76.1371 28.4986 76.0171 28.7686 75.7771 28.8586C75.5371 28.9486 75.2671 28.8186 75.1771 28.5786H75.1671Z" fill="#B5FF00"/>
<path d="M60.3771 25.2886C60.3071 25.0986 60.4071 24.8786 60.5971 24.8086C60.7871 24.7386 61.0071 24.8386 61.0871 25.0286C61.1471 25.2186 61.0471 25.4386 60.8571 25.5086C60.6671 25.5786 60.4471 25.4786 60.3771 25.2886Z" fill="#B5FF00"/>
<path d="M69.8071 27.0386C69.7371 26.8486 69.8371 26.6286 70.0271 26.5586C70.2271 26.4886 70.4371 26.5886 70.5171 26.7786C70.5771 26.9686 70.4771 27.1886 70.2871 27.2586C70.0971 27.3286 69.8871 27.2286 69.8071 27.0386Z" fill="#B5FF00"/>
<path d="M61.4771 37.6086C61.4071 37.4186 61.5071 37.1986 61.6971 37.1286C61.8871 37.0586 62.1071 37.1586 62.1871 37.3486C62.2471 37.5386 62.1471 37.7586 61.9571 37.8286C61.7671 37.8986 61.5571 37.7986 61.4771 37.6086Z" fill="#B5FF00"/>
<path d="M30.7771 69.0086C30.7171 68.8186 30.8171 68.5986 31.0071 68.5286C31.1971 68.4586 31.4071 68.5586 31.4871 68.7486C31.5571 68.9386 31.4571 69.1586 31.2671 69.2286C31.0771 69.2986 30.8571 69.1986 30.7771 69.0086Z" fill="#B5FF00"/>
<path d="M32.6971 64.9386C32.6271 64.7486 32.7271 64.5286 32.9271 64.4586C33.1171 64.3886 33.3271 64.4886 33.4071 64.6786C33.4771 64.8686 33.3771 65.0886 33.1871 65.1586C32.9871 65.2286 32.7771 65.1286 32.6971 64.9386Z" fill="#B5FF00"/>
<path d="M42.4871 69.3386C42.4271 69.1486 42.5271 68.9286 42.7171 68.8586C42.9071 68.7886 43.1171 68.8886 43.1971 69.0786C43.2671 69.2686 43.1671 69.4886 42.9771 69.5586C42.7871 69.6286 42.5671 69.5286 42.4871 69.3386Z" fill="#B5FF00"/>
<path d="M85.9971 28.1286C85.8871 27.8386 86.0471 27.5186 86.3371 27.4086C86.6171 27.2986 86.9571 27.4486 87.0571 27.7386C87.1671 28.0286 87.0071 28.3486 86.7171 28.4586C86.4371 28.5686 86.0971 28.4186 85.9971 28.1286Z" fill="#B5FF00"/>
<path d="M56.7471 40.5186C56.6371 40.2286 56.7971 39.9086 57.0871 39.7986C57.3771 39.6886 57.7071 39.8386 57.8071 40.1286C57.9171 40.4186 57.7571 40.7386 57.4771 40.8486C57.1871 40.9586 56.8571 40.8086 56.7471 40.5186Z" fill="#B5FF00"/>
<path d="M72.1571 40.5986C72.0771 40.3586 72.1971 40.0886 72.4371 39.9986C72.6771 39.9086 72.9471 40.0386 73.0371 40.2786C73.1271 40.5186 72.9971 40.7886 72.7571 40.8786C72.5071 40.9686 72.2471 40.8386 72.1471 40.5986H72.1571Z" fill="#B5FF00"/>
</g>
<defs>
<clipPath id="clip0_63_4522">
<rect width="88" height="88" fill="white"/>
</clipPath>
</defs>
</svg>
