<svg width="163" height="163" viewBox="0 0 163 163" fill="none" xmlns="http://www.w3.org/2000/svg">
<path d="M140.77 29.9476L51.2538 4.2793C43.0681 1.9321 34.398 6.73803 32.0508 14.9237L6.38253 104.44C4.03533 112.625 8.84126 121.295 17.0269 123.643L106.543 149.311C114.728 151.658 123.399 146.852 125.746 138.666L151.414 49.1505C153.761 40.9649 148.955 32.2948 140.77 29.9476ZM115.797 135.814C114.993 138.617 112.199 140.165 109.396 139.362L19.8798 113.693C17.0767 112.89 15.5279 110.096 16.3317 107.292L41.9999 17.7766C42.8037 14.9734 45.5978 13.4246 48.4009 14.2284L137.917 39.8967C140.72 40.7005 142.269 43.4945 141.465 46.2977L115.797 135.814Z" fill="#B5FF00"/>
<path d="M112.258 60.8383C107.908 57.2836 103.038 54.2494 97.7543 51.7659C96.7454 52.7014 95.5294 53.9621 94.6295 55.0143C88.9677 52.5078 83.1245 50.8323 77.1132 49.9916C76.9077 48.6224 76.5181 46.9013 76.1583 45.5733C70.3519 44.8626 64.6106 44.8684 59.0379 45.5777C45.0813 56.5016 38.5212 69.1477 36.0767 82.7887C41.4075 89.2309 47.0617 93.8004 52.8616 97.4147C54.9862 95.916 56.968 94.2198 58.809 92.3692C56.7417 90.9361 54.8439 89.3095 53.1023 87.5853C53.7569 87.3885 54.3965 87.1446 55.0324 86.9139C66.104 95.8853 79.8038 99.8136 93.8024 98.031C94.2156 98.5768 94.6457 99.1131 95.0834 99.6232C92.6796 100.159 90.2082 100.532 87.6957 100.652C88.263 103.193 89.0449 105.682 90.0656 108.083C96.9051 108.121 104.133 107.203 112.064 104.578C118.056 89.6895 117.562 75.1204 112.271 60.842L112.258 60.8383ZM63.667 81.8842C59.8769 80.7974 57.7088 76.6863 58.8257 72.7909C59.9427 68.8954 63.9186 66.5034 67.7614 67.6053C71.6042 68.7072 73.7855 72.822 72.6045 76.7419C71.4875 80.6373 67.523 82.9898 63.667 81.8842ZM89.132 89.1861C85.3419 88.0993 83.1738 83.9883 84.2908 80.0928C85.4078 76.1974 89.3836 73.8054 93.2264 74.9073C97.0692 76.0092 99.2636 80.1278 98.0695 84.0438C96.9525 87.9393 92.988 90.2918 89.132 89.1861Z" fill="#B5FF00"/>
<path d="M82.4568 117.879C82.3845 116.69 83.2845 115.638 84.49 115.556C85.6955 115.475 86.7477 116.375 86.8293 117.58C86.9147 118.773 86.0016 119.821 84.7961 119.903C83.5906 119.984 82.5384 119.084 82.4568 117.879Z" fill="#B5FF00"/>
<path d="M77.6554 130.004C77.6276 129.654 77.9005 129.348 78.2503 129.32C78.6002 129.292 78.9064 129.565 78.9343 129.915C78.9622 130.265 78.6892 130.571 78.3394 130.599C77.9896 130.627 77.6833 130.354 77.6554 130.004Z" fill="#B5FF00"/>
<path d="M100.848 148.162C100.82 147.812 101.093 147.506 101.443 147.478C101.793 147.45 102.099 147.723 102.127 148.073C102.155 148.423 101.882 148.729 101.532 148.757C101.182 148.785 100.876 148.512 100.848 148.162Z" fill="#B5FF00"/>
<path d="M93.5822 147.375C93.5543 147.025 93.8273 146.719 94.1771 146.691C94.5401 146.667 94.8332 146.936 94.8742 147.289C94.8889 147.635 94.6291 147.946 94.2793 147.973C93.9295 148.001 93.6232 147.728 93.5954 147.378L93.5822 147.375Z" fill="#B5FF00"/>
<path d="M106.902 113.637C106.858 112.998 107.329 112.449 107.981 112.408C108.621 112.364 109.165 112.847 109.214 113.474C109.258 114.113 108.774 114.658 108.135 114.703C107.496 114.747 106.938 114.259 106.902 113.637Z" fill="#B5FF00"/>
<path d="M74.4619 84.9655C74.4415 84.689 74.6561 84.4372 74.9326 84.4168C75.2091 84.3964 75.4608 84.611 75.4813 84.8875C75.5017 85.1639 75.2871 85.4157 75.0106 85.4361C74.7341 85.4566 74.4824 85.2419 74.4619 84.9655Z" fill="#B5FF00"/>
<path d="M86.2114 90.8273C86.191 90.5508 86.4056 90.299 86.6821 90.2786C86.9586 90.2582 87.2104 90.4728 87.2439 90.7531C87.2512 91.0257 87.0366 91.2775 86.7601 91.298C86.4837 91.3184 86.245 91.1075 86.2114 90.8273Z" fill="#B5FF00"/>
<path d="M71.2608 101.594C71.2403 101.317 71.455 101.066 71.7314 101.045C72.0079 101.025 72.2597 101.239 72.2933 101.52C72.3005 101.792 72.0859 102.044 71.8094 102.065C71.533 102.085 71.2812 101.87 71.2608 101.594Z" fill="#B5FF00"/>
<path d="M19.0096 131.332C19.0023 131.06 19.2169 130.808 19.4934 130.787C19.7698 130.767 20.0085 130.978 20.042 131.258C20.0756 131.538 19.8478 131.786 19.5714 131.807C19.2949 131.827 19.0431 131.612 19.0096 131.332Z" fill="#B5FF00"/>
<path d="M23.059 126.697C23.0385 126.42 23.2532 126.169 23.5428 126.152C23.8192 126.132 24.0579 126.342 24.0915 126.623C24.1119 126.899 23.8973 127.151 23.6208 127.171C23.3312 127.188 23.0926 126.977 23.059 126.697Z" fill="#B5FF00"/>
<path d="M34.2957 136.185C34.2884 135.913 34.503 135.661 34.7795 135.64C35.056 135.62 35.2946 135.831 35.3282 136.111C35.3618 136.391 35.134 136.639 34.8575 136.66C34.5811 136.68 34.3293 136.465 34.2957 136.185Z" fill="#B5FF00"/>
<path d="M67.4063 130.583C67.3858 130.306 67.6005 130.054 67.8769 130.034C68.1534 130.014 68.4052 130.228 68.4256 130.505C68.446 130.781 68.2314 131.033 67.9549 131.053C67.6785 131.074 67.4267 130.859 67.4063 130.583Z" fill="#B5FF00"/>
<path d="M107.107 98.3711C107.071 97.9479 107.403 97.5871 107.826 97.5518C108.236 97.5127 108.614 97.8347 108.649 98.2578C108.684 98.681 108.353 99.0417 107.93 99.077C107.52 99.1161 107.129 98.7904 107.107 98.3711Z" fill="#B5FF00"/>
<path d="M63.9378 103.639C63.9025 103.215 64.2338 102.855 64.657 102.819C65.067 102.78 65.4578 103.106 65.48 103.525C65.5153 103.949 65.184 104.309 64.774 104.348C64.3508 104.384 63.9732 104.062 63.9378 103.639Z" fill="#B5FF00"/>
<path d="M84.1908 109.546C84.1761 109.2 84.4359 108.89 84.7857 108.862C85.1355 108.834 85.4417 109.107 85.4696 109.457C85.4975 109.807 85.2245 110.113 84.8747 110.141C84.5117 110.165 84.2186 109.896 84.1776 109.542L84.1908 109.546Z" fill="#B5FF00"/>
<path d="M118.303 90.914C118.231 89.7254 119.131 88.6731 120.336 88.5915C121.555 88.5137 122.594 89.4099 122.676 90.6154C122.761 91.8077 121.848 92.8562 120.642 92.9378C119.437 93.0194 118.388 92.1063 118.303 90.914Z" fill="#B5FF00"/>
<path d="M113.502 103.039C113.474 102.689 113.747 102.383 114.097 102.355C114.447 102.327 114.753 102.6 114.781 102.95C114.809 103.3 114.536 103.606 114.186 103.634C113.836 103.662 113.53 103.389 113.502 103.039Z" fill="#B5FF00"/>
<path d="M136.727 100.171C136.713 99.8246 136.972 99.5145 137.322 99.4866C137.672 99.4588 137.978 99.7317 138.006 100.082C138.034 100.431 137.761 100.738 137.411 100.766C137.048 100.79 136.755 100.52 136.714 100.167L136.727 100.171Z" fill="#B5FF00"/>
<path d="M136.681 121.193C136.653 120.843 136.926 120.537 137.276 120.509C137.626 120.481 137.932 120.754 137.96 121.104C137.988 121.454 137.715 121.76 137.365 121.788C137.002 121.812 136.709 121.543 136.668 121.189L136.681 121.193Z" fill="#B5FF00"/>
<path d="M129.425 120.423C129.397 120.073 129.67 119.767 130.02 119.739C130.383 119.715 130.676 119.984 130.717 120.337C130.732 120.683 130.472 120.993 130.122 121.021C129.772 121.049 129.466 120.776 129.438 120.426L129.425 120.423Z" fill="#B5FF00"/>
<path d="M142.732 86.6814C142.687 86.042 143.158 85.4933 143.81 85.4526C144.45 85.408 144.995 85.8918 145.043 86.5181C145.087 87.1575 144.604 87.7024 143.964 87.747C143.325 87.7915 142.767 87.3039 142.732 86.6814Z" fill="#B5FF00"/>
<path d="M128.518 67.9074C128.49 67.5576 128.763 67.2514 129.113 67.2235C129.476 67.1994 129.769 67.4686 129.81 67.8222C129.824 68.1682 129.565 68.4782 129.215 68.5061C128.865 68.534 128.559 68.261 128.531 67.9112L128.518 67.9074Z" fill="#B5FF00"/>
<path d="M110.295 57.9967C110.275 57.7203 110.489 57.4685 110.766 57.4481C111.042 57.4276 111.294 57.6423 111.327 57.9225C111.335 58.1952 111.12 58.447 110.844 58.4674C110.567 58.4878 110.315 58.2732 110.295 57.9967Z" fill="#B5FF00"/>
<path d="M122.045 63.8585C122.025 63.5821 122.239 63.3303 122.516 63.3099C122.805 63.2932 123.044 63.5041 123.077 63.7843C123.085 64.057 122.87 64.3088 122.594 64.3292C122.317 64.3496 122.079 64.1388 122.045 63.8585Z" fill="#B5FF00"/>
<path d="M107.107 74.6291C107.087 74.3526 107.301 74.1008 107.578 74.0804C107.854 74.06 108.106 74.2746 108.139 74.5548C108.147 74.8275 107.932 75.0793 107.656 75.0997C107.379 75.1201 107.141 74.9093 107.107 74.6291Z" fill="#B5FF00"/>
<path d="M54.8557 104.367C54.8485 104.094 55.0631 103.842 55.3396 103.822C55.616 103.802 55.8546 104.012 55.8882 104.293C55.9087 104.569 55.694 104.821 55.4176 104.841C55.1411 104.862 54.8893 104.647 54.8557 104.367Z" fill="#B5FF00"/>
<path d="M58.9052 99.7316C58.8847 99.4551 59.0994 99.2033 59.389 99.1867C59.6654 99.1662 59.9041 99.3771 59.9377 99.6573C59.9581 99.9338 59.7435 100.186 59.467 100.206C59.1774 100.223 58.9387 100.012 58.9052 99.7316Z" fill="#B5FF00"/>
<path d="M70.1419 109.22C70.1346 108.947 70.3492 108.695 70.6257 108.675C70.9022 108.655 71.1408 108.865 71.1744 109.146C71.1948 109.422 70.9802 109.674 70.7037 109.694C70.4272 109.715 70.1755 109.5 70.1419 109.22Z" fill="#B5FF00"/>
<path d="M142.94 71.4023C142.904 70.9791 143.236 70.6184 143.659 70.5831C144.069 70.544 144.46 70.8697 144.482 71.2891C144.517 71.7122 144.186 72.073 143.763 72.1083C143.353 72.1474 142.962 71.8217 142.94 71.4023Z" fill="#B5FF00"/>
<path d="M99.7708 76.6699C99.7355 76.2467 100.067 75.886 100.49 75.8506C100.913 75.8153 101.291 76.1372 101.313 76.5566C101.348 76.9798 101.017 77.3405 100.607 77.3796C100.184 77.415 99.8062 77.093 99.7708 76.6699Z" fill="#B5FF00"/>
<path d="M120.034 82.5939C120.019 82.2479 120.279 81.9379 120.629 81.91C120.979 81.8821 121.285 82.1551 121.313 82.5049C121.341 82.8547 121.068 83.161 120.718 83.1888C120.355 83.2129 120.062 82.9437 120.021 82.5902L120.034 82.5939Z" fill="#B5FF00"/>
</svg>
