<svg width="88" height="88" viewBox="0 0 88 88" fill="none" xmlns="http://www.w3.org/2000/svg">
<path d="M37.3623 39.93C37.7323 39.29 38.5523 39.06 39.2023 39.43C39.8523 39.8 40.0823 40.63 39.7123 41.28C39.3423 41.93 38.5223 42.15 37.8723 41.78C37.2223 41.41 36.9923 40.58 37.3623 39.93Z" fill="#B5FF00"/>
<path d="M30.7123 44.52C30.8223 44.33 31.0623 44.26 31.2523 44.38C31.4423 44.49 31.5023 44.73 31.4023 44.92C31.2923 45.11 31.0523 45.18 30.8623 45.06C30.6723 44.95 30.6123 44.71 30.7123 44.52Z" fill="#B5FF00"/>
<path d="M36.4123 61.87C36.5223 61.68 36.7623 61.61 36.9523 61.73C37.1423 61.84 37.2023 62.08 37.1023 62.27C36.9923 62.46 36.7523 62.53 36.5623 62.41C36.3723 62.3 36.3123 62.06 36.4123 61.87Z" fill="#B5FF00"/>
<path d="M32.9323 58.96C33.0423 58.77 33.2823 58.7 33.4723 58.81C33.6623 58.92 33.7323 59.16 33.6223 59.36C33.5123 59.55 33.2723 59.62 33.0823 59.5C32.8923 59.39 32.8223 59.15 32.9323 58.96Z" fill="#B5FF00"/>
<path d="M51.4123 46.16C51.6123 45.82 52.0423 45.7 52.3923 45.9C52.7323 46.1 52.8523 46.53 52.6623 46.88C52.4623 47.22 52.0223 47.34 51.6923 47.14C51.3523 46.94 51.2223 46.5 51.4223 46.16H51.4123Z" fill="#B5FF00"/>
<path d="M44.5823 20.21C44.6723 20.06 44.8623 20 45.0123 20.09C45.1623 20.18 45.2223 20.37 45.1323 20.52C45.0423 20.67 44.8523 20.73 44.7023 20.64C44.5523 20.55 44.4923 20.36 44.5823 20.21Z" fill="#B5FF00"/>
<path d="M48.6123 27.28C48.7023 27.13 48.8923 27.07 49.0423 27.16C49.1923 27.25 49.2523 27.44 49.1623 27.6C49.0723 27.75 48.8823 27.8 48.7223 27.71C48.5723 27.62 48.5223 27.43 48.6023 27.28H48.6123Z" fill="#B5FF00"/>
<path d="M37.2023 27.68C37.2923 27.53 37.4823 27.47 37.6323 27.56C37.7823 27.65 37.8423 27.84 37.7523 28C37.6623 28.15 37.4723 28.2 37.3123 28.11C37.1623 28.02 37.1023 27.83 37.1923 27.68H37.2023Z" fill="#B5FF00"/>
<path d="M0.0322862 25.01C0.122286 24.86 0.312286 24.81 0.472286 24.9C0.622286 24.99 0.672286 25.18 0.592286 25.33C0.512286 25.48 0.312286 25.54 0.162286 25.45C0.0122862 25.36 -0.0477138 25.17 0.0422862 25.01H0.0322862Z" fill="#B5FF00"/>
<path d="M3.71229 24.01C3.80229 23.86 3.99229 23.8 4.15229 23.9C4.30229 23.99 4.35229 24.18 4.27229 24.33C4.18229 24.48 3.99229 24.54 3.84229 24.45C3.68229 24.36 3.63229 24.17 3.72229 24.01H3.71229Z" fill="#B5FF00"/>
<path d="M6.24229 32.77C6.33229 32.62 6.52229 32.57 6.68229 32.66C6.83229 32.75 6.88229 32.94 6.80229 33.09C6.72229 33.24 6.52229 33.3 6.37229 33.21C6.22229 33.12 6.16229 32.93 6.25229 32.77H6.24229Z" fill="#B5FF00"/>
<path d="M25.2223 41.29C25.3123 41.14 25.5023 41.08 25.6523 41.17C25.8023 41.26 25.8623 41.45 25.7723 41.6C25.6823 41.75 25.4923 41.81 25.3423 41.72C25.1923 41.63 25.1323 41.44 25.2223 41.29Z" fill="#B5FF00"/>
<path d="M56.7823 38.36C56.9123 38.13 57.2023 38.05 57.4323 38.19C57.6523 38.32 57.7323 38.61 57.6123 38.84C57.4823 39.07 57.1923 39.15 56.9623 39.01C56.7423 38.88 56.6523 38.59 56.7823 38.36Z" fill="#B5FF00"/>
<path d="M32.7223 26.21C32.8523 25.98 33.1423 25.9 33.3723 26.04C33.5923 26.17 33.6823 26.46 33.5523 26.69C33.4223 26.92 33.1323 27 32.9023 26.87C32.6723 26.74 32.5923 26.45 32.7223 26.22V26.21Z" fill="#B5FF00"/>
<path d="M41.1223 36.23C41.2323 36.04 41.4723 35.97 41.6623 36.09C41.8523 36.2 41.9223 36.44 41.8123 36.63C41.7023 36.82 41.4623 36.89 41.2723 36.78C41.0823 36.67 41.0123 36.43 41.1223 36.23Z" fill="#B5FF00"/>
<path d="M65.1123 38.38C65.4823 37.74 66.3023 37.51 66.9523 37.88C67.6023 38.26 67.8323 39.08 67.4623 39.73C67.0923 40.38 66.2723 40.6 65.6223 40.23C64.9723 39.86 64.7423 39.03 65.1123 38.38Z" fill="#B5FF00"/>
<path d="M58.4623 42.97C58.5723 42.78 58.8123 42.71 59.0023 42.83C59.1923 42.94 59.2523 43.18 59.1523 43.37C59.0423 43.56 58.8023 43.63 58.6123 43.51C58.4223 43.4 58.3623 43.16 58.4623 42.97Z" fill="#B5FF00"/>
<path d="M71.4323 49.49C71.5423 49.3 71.7823 49.23 71.9723 49.35C72.1623 49.46 72.2323 49.7 72.1223 49.89C72.0123 50.08 71.7723 50.15 71.5823 50.04C71.3923 49.93 71.3223 49.69 71.4323 49.49Z" fill="#B5FF00"/>
<path d="M64.1623 60.32C64.2723 60.13 64.5123 60.06 64.7023 60.18C64.8923 60.29 64.9523 60.53 64.8523 60.72C64.7423 60.91 64.5023 60.98 64.3123 60.87C64.1223 60.76 64.0523 60.52 64.1623 60.32Z" fill="#B5FF00"/>
<path d="M60.6923 57.41C60.8023 57.22 61.0423 57.15 61.2323 57.26C61.4223 57.37 61.4923 57.61 61.3823 57.81C61.2723 58 61.0323 58.07 60.8423 57.95C60.6523 57.84 60.5823 57.6 60.6923 57.41Z" fill="#B5FF00"/>
<path d="M79.1723 44.61C79.3723 44.27 79.8023 44.15 80.1523 44.35C80.4923 44.55 80.6123 44.98 80.4223 45.33C80.2223 45.67 79.7823 45.79 79.4423 45.59C79.1023 45.39 78.9723 44.95 79.1723 44.61Z" fill="#B5FF00"/>
<path d="M78.3123 30.04C78.4223 29.85 78.6623 29.78 78.8523 29.89C79.0423 30 79.1123 30.24 79.0023 30.44C78.8923 30.63 78.6523 30.7 78.4623 30.58C78.2723 30.47 78.2023 30.23 78.3123 30.04Z" fill="#B5FF00"/>
<path d="M72.3323 18.66C72.4223 18.51 72.6123 18.45 72.7623 18.54C72.9123 18.63 72.9723 18.82 72.8823 18.98C72.7923 19.13 72.6023 19.18 72.4423 19.09C72.2923 19 72.2323 18.81 72.3223 18.66H72.3323Z" fill="#B5FF00"/>
<path d="M76.3723 25.73C76.4623 25.58 76.6523 25.52 76.8023 25.61C76.9623 25.7 77.0123 25.89 76.9223 26.05C76.8323 26.2 76.6423 26.25 76.4823 26.16C76.3323 26.07 76.2823 25.88 76.3623 25.73H76.3723Z" fill="#B5FF00"/>
<path d="M64.9523 26.13C65.0423 25.98 65.2323 25.92 65.3823 26.01C65.5323 26.1 65.5923 26.29 65.5023 26.45C65.4123 26.6 65.2123 26.65 65.0623 26.56C64.9123 26.47 64.8623 26.28 64.9423 26.13H64.9523Z" fill="#B5FF00"/>
<path d="M27.7823 23.46C27.8723 23.31 28.0623 23.26 28.2223 23.35C28.3723 23.44 28.4223 23.63 28.3423 23.78C28.2523 23.93 28.0623 23.99 27.9123 23.9C27.7623 23.81 27.7023 23.62 27.7923 23.46H27.7823Z" fill="#B5FF00"/>
<path d="M31.4723 22.46C31.5623 22.31 31.7523 22.25 31.9123 22.35C32.0623 22.44 32.1123 22.63 32.0323 22.78C31.9423 22.93 31.7523 22.99 31.6023 22.9C31.4423 22.81 31.3923 22.62 31.4823 22.46H31.4723Z" fill="#B5FF00"/>
<path d="M33.9923 31.22C34.0823 31.07 34.2723 31.02 34.4323 31.11C34.5823 31.2 34.6323 31.39 34.5523 31.54C34.4623 31.69 34.2723 31.75 34.1223 31.66C33.9723 31.57 33.9123 31.38 34.0023 31.22H33.9923Z" fill="#B5FF00"/>
<path d="M84.5323 36.81C84.6623 36.58 84.9523 36.5 85.1823 36.64C85.4023 36.77 85.4923 37.06 85.3623 37.29C85.2323 37.52 84.9423 37.6 84.7123 37.46C84.4923 37.33 84.4023 37.04 84.5323 36.81Z" fill="#B5FF00"/>
<path d="M60.4723 24.66C60.6023 24.43 60.8923 24.35 61.1223 24.49C61.3523 24.62 61.4323 24.91 61.3023 25.14C61.1723 25.37 60.8823 25.45 60.6523 25.32C60.4223 25.19 60.3423 24.9 60.4723 24.67V24.66Z" fill="#B5FF00"/>
<path d="M68.8723 34.68C68.9823 34.49 69.2223 34.42 69.4123 34.54C69.6023 34.65 69.6723 34.89 69.5623 35.08C69.4523 35.27 69.2123 35.34 69.0223 35.23C68.8323 35.12 68.7623 34.88 68.8723 34.68Z" fill="#B5FF00"/>
<path d="M30.0323 15C20.7623 15 13.1923 22.56 13.1923 31.84V56.19C13.1923 65.44 20.7523 73.01 30.0323 73.01H54.3823C63.6323 73.01 71.2023 65.45 71.2023 56.17V31.84C71.2023 22.57 63.6423 15 54.3623 15H30.0323ZM30.0323 19.46H54.3623C61.2323 19.46 66.7323 24.97 66.7323 31.83V56.16C66.7323 63.03 61.2223 68.53 54.3723 68.53H30.0223C23.1523 68.53 17.6523 63.02 17.6523 56.17V31.82C17.6523 24.95 23.1623 19.45 30.0223 19.45L30.0323 19.46ZM60.0423 23.92C58.8023 23.92 57.8123 24.91 57.8123 26.15C57.8123 27.39 58.8023 28.38 60.0423 28.38C61.2823 28.38 62.2723 27.39 62.2723 26.15C62.2723 24.91 61.2823 23.92 60.0423 23.92ZM42.1923 28.38C33.6023 28.38 26.5723 35.4 26.5723 44C26.5723 52.6 33.5923 59.62 42.1923 59.62C50.7923 59.62 57.8123 52.6 57.8123 44C57.8123 35.4 50.7923 28.38 42.1923 28.38ZM42.1923 32.84C48.3823 32.84 53.3423 37.81 53.3423 43.99C53.3423 50.17 48.3723 55.14 42.1923 55.14C36.0123 55.14 31.0423 50.17 31.0423 43.99C31.0423 37.81 36.0123 32.84 42.1923 32.84Z" fill="#B5FF00"/>
</svg>

