<svg width="194" height="90" viewBox="0 0 194 90" fill="none" xmlns="http://www.w3.org/2000/svg">
<g clip-path="url(#clip0_9_1159)">
<path d="M57.4466 1.26326C52.4651 -0.503829 46.8387 -0.666908 34.946 2.38778C26.5916 4.53214 18.9965 6.52803 14.9933 7.71339C13.2971 8.21723 13.5016 8.19533 12.056 8.51662C11.4282 8.65536 11.4136 8.67726 11.4136 9.31984C11.4136 10.1231 11.7348 17.3569 11.7348 18.3208C11.7348 19.2847 11.9052 18.978 13.0197 18.6421C13.7084 18.4352 37.5182 12.1895 44.4295 10.4224C51.3408 8.65535 56.4172 12.2114 57.3809 17.1963C58.3445 22.1787 56.8065 24.2476 53.2025 27.6455C49.5984 31.0434 40.8936 34.3975 34.306 36.6246C34.6807 35.6072 35.7515 32.864 37.0388 30.0333C38.645 26.4967 40.4093 22.4732 40.896 21.6749C41.4703 20.7329 41.2002 20.784 40.1854 20.7329C37.0388 20.5723 31.5074 20.251 29.8063 19.9078C29.1931 19.7837 29.3196 19.7691 28.9351 20.7329C27.6502 23.9482 14.6307 50.1504 14.1489 50.9536C13.667 51.7568 14.0321 51.4282 14.4701 51.7568C15.0444 52.1876 25.2386 58.0268 32.4711 63.3305C38.258 67.5755 44.7532 72.6114 45.3956 73.2759C46.0381 73.9404 46.3593 74.987 46.3593 78.1196V87.9043C46.3593 89.1676 46.4226 89.9951 47.323 89.9951C48.4473 89.9951 47.8049 86.8017 47.8049 84.0683V77.6377C47.8049 75.7318 48.0847 73.8187 49.1822 72.1733C49.5035 71.6914 54.7137 63.9537 55.8404 63.1504C56.9647 62.3472 56.2152 62.1111 55.3586 61.544C48.1261 56.7441 41.9522 53.2075 35.5909 48.6827C38.095 48.062 46.7949 45.3018 51.4333 43.0966C57.9138 40.0152 65.4213 34.8648 68.2175 26.1778C72.7171 12.192 62.4305 3.03035 57.449 1.26083L57.4466 1.26326Z" fill="white"/>
<path d="M122.149 66.2294C123.057 66.7138 124.145 66.3682 124.145 65.565C124.145 64.3066 123.24 63.7321 123.736 61.4077L127.52 43.7027C129.504 46.329 133.877 52.5065 134.524 53.3706C135.006 54.0131 135.006 54.3344 135.969 54.3344C136.933 54.3344 144.82 54.9429 146.577 55.1377C148.023 55.2983 147.592 55.0865 148.023 54.0131C148.918 51.7836 152.805 41.3465 154.681 35.9869C155.808 41.8918 160.612 69.9048 162.327 80.2153C162.648 82.1454 162.887 82.0797 164.094 82.2842C165.301 82.4886 175.32 83.5693 176.444 83.5693C177.569 83.5693 177.569 83.5693 177.408 82.2842C177.247 80.999 162.875 13.9639 162.554 13C162.232 12.0362 162.232 11.5542 161.269 11.3936C160.558 11.2743 153.968 9.80905 153.004 9.48533C152.089 9.18108 151.627 9.14213 150.982 10.5879C150.469 11.7465 143.482 29.8239 140.053 38.7202L131.054 25.2163C129.769 23.2862 130.251 22.6436 128.321 22.8042C126.391 22.9649 119.159 23.7681 118.195 24.0894C117.231 24.4107 117.611 24.7709 117.231 26.3409C116.681 28.6142 110.159 58.813 109.517 60.4195C108.874 62.0259 109.373 62.116 110.159 62.3472C111.86 62.851 118.864 64.4818 122.144 66.227L122.149 66.2294Z" fill="white"/>
<path d="M177.413 82.2842C177.345 81.7365 174.697 69.2525 171.653 55.0305C171.438 55.1328 171.215 55.2204 170.983 55.2813C170.248 55.4711 169.526 55.6975 168.817 55.9701C168.815 55.9798 168.146 56.2646 168.051 56.3108C167.662 56.4983 167.277 56.6954 166.897 56.8999C166.143 57.3064 165.406 57.7469 164.683 58.2094C164.332 58.4357 163.984 58.6694 163.641 58.9079C163.598 58.9396 163.313 59.1465 163.135 59.273C163.001 59.402 162.639 59.7282 162.578 59.789C162.5 59.8694 162.429 59.9546 162.354 60.0397C162.04 60.6117 161.67 61.1448 161.373 61.7314C160.804 62.8632 160.327 64.0388 159.779 65.1804C160.806 71.1924 161.743 76.7225 162.325 80.2177C162.646 82.1479 162.884 82.0821 164.092 82.2866C165.299 82.4911 175.317 83.5718 176.442 83.5718C177.566 83.5718 177.566 83.5718 177.405 82.2866L177.413 82.2842Z" fill="#46FFFF"/>
<path d="M122.149 66.2294C123.057 66.7138 124.145 66.3682 124.145 65.565C124.145 64.3066 123.24 63.7321 123.736 61.4077L127.52 43.7027C129.504 46.329 133.877 52.5065 134.524 53.3706C135.006 54.0131 135.006 54.3344 135.969 54.3344C136.933 54.3344 144.82 54.9429 146.577 55.1377C148.023 55.2983 147.592 55.0865 148.023 54.0131C148.918 51.7836 152.805 41.3465 154.681 35.9869C155.808 41.8918 160.612 69.9048 162.327 80.2153C162.648 82.1454 162.887 82.0797 164.094 82.2842C165.301 82.4886 175.32 83.5693 176.444 83.5693C177.569 83.5693 177.569 83.5693 177.408 82.2842C177.247 80.999 162.875 13.9639 162.554 13C162.232 12.0362 162.232 11.5542 161.269 11.3936C160.558 11.2743 153.968 9.80905 153.004 9.48533C152.089 9.18108 151.627 9.14213 150.982 10.5879C150.469 11.7465 143.482 29.8239 140.053 38.7202L131.054 25.2163C129.769 23.2862 130.251 22.6436 128.321 22.8042C126.391 22.9649 119.159 23.7681 118.195 24.0894C117.231 24.4107 117.611 24.7709 117.231 26.3409C116.681 28.6142 110.159 58.813 109.517 60.4195C108.874 62.0259 109.373 62.116 110.159 62.3472C111.86 62.851 118.864 64.4818 122.144 66.227L122.149 66.2294Z" fill="url(#paint0_radial_9_1159)"/>
<path d="M32.4662 63.3378C38.2532 67.5827 44.7483 72.6187 45.3908 73.2832C46.0332 73.9477 46.3544 74.9943 46.3544 78.1269V87.9116C46.3544 89.1749 46.4177 90.0024 47.3181 90.0024C48.4424 90.0024 47.8 86.809 47.8 84.0756V77.6449C47.8 75.7391 48.0798 73.826 49.1774 72.1806C49.4986 71.6986 54.7088 63.9609 55.8356 63.1577C56.9599 62.3545 56.2103 62.1184 55.3537 61.5513C48.1212 56.7514 41.9473 53.2148 35.586 48.6899C38.0901 48.0693 46.7901 45.3091 51.4284 43.1039C57.9089 40.0224 65.4164 34.8721 68.2126 26.1851C72.7122 12.1993 62.4256 3.03764 57.4441 1.26812C52.4627 -0.498977 46.8363 -0.662056 34.9435 2.39263C26.5892 4.53943 18.9941 6.53288 14.9909 7.71824C13.2947 8.22208 13.4991 8.20018 12.0536 8.52147C11.4257 8.6602 11.4111 8.68211 11.4111 9.32469C11.4111 10.1279 11.7324 17.3618 11.7324 18.3257C11.7324 19.2895 11.9027 18.9828 13.0173 18.647C13.706 18.4401 37.5158 12.1944 44.4271 10.4273C51.3384 8.6602 56.4123 12.2163 57.3784 17.2011C58.3421 22.1836 56.8041 24.2525 53.2 27.6504C49.5959 31.0482 40.8936 34.4023 34.3035 36.6294C34.6783 35.612 35.749 32.8689 37.0364 30.0381C38.6425 26.5015 40.4069 22.4781 40.8936 21.6797C41.4679 20.7378 41.1978 20.7889 40.183 20.7378C37.0364 20.5771 31.5049 20.2558 29.8039 19.9126C29.1906 19.7885 29.3172 19.7739 28.9327 20.7378C27.6478 23.9531 14.6283 50.1552 14.1464 50.9584C13.6646 51.7617 14.0296 51.4355 14.4677 51.7617C15.042 52.1925 25.2361 58.0317 32.4686 63.3354L32.4662 63.3378Z" fill="url(#paint1_radial_9_1159)"/>
<path d="M55.3559 61.5464C48.1234 56.7465 41.9495 53.2099 35.5882 48.6875C36.2623 48.5196 37.3866 48.1983 38.7591 47.7723C37.8076 45.8714 37.4766 43.5323 37.3379 41.5754C37.299 41.0204 37.3111 40.4679 37.3574 39.9178C37.1043 38.9466 36.9461 37.9487 36.8536 36.9921C36.8123 36.5808 36.805 36.167 36.822 35.7581C35.9581 36.0648 35.1161 36.3568 34.3033 36.6319C34.678 35.6145 35.7488 32.8713 37.0361 30.0406C38.6423 26.504 40.4066 22.4805 40.8933 21.6822C41.4676 20.7402 41.1975 20.7913 40.1827 20.7402C37.0361 20.5796 31.5047 20.2583 29.8036 19.9151C29.1904 19.791 29.3169 19.7763 28.9324 20.7402C27.6475 23.9555 14.628 50.1577 14.1462 50.9609C13.6644 51.7641 14.0294 51.438 14.4674 51.7641C15.0417 52.1949 25.2359 58.0341 32.4684 63.3378C38.2554 67.5828 44.7505 72.6187 45.3929 73.2832C46.0354 73.9477 46.3566 74.9943 46.3566 78.1269V87.9116C46.3566 89.1749 46.4199 90.0024 47.3203 90.0024C48.4446 90.0024 47.8022 86.809 47.8022 84.0756V77.645C47.8022 75.7391 48.082 73.826 49.1795 72.1782C49.5008 71.6962 54.711 63.9585 55.8377 63.1553C56.962 62.3521 56.2125 62.116 55.3559 61.5488V61.5464Z" fill="#FF58E2"/>
<path d="M171.813 31.0264C171.556 30.2548 170.796 26.6865 170.205 24.917C169.723 23.4712 170.402 23.7146 171.49 23.9531C172.58 24.1917 178.187 24.7296 179.847 24.917C181.937 25.1555 181.774 25.0776 182.098 26.0415C182.665 27.7477 183.509 31.1018 184.188 32.7934C184.638 33.918 183.889 33.7159 182.455 33.5212C180.652 33.2778 176.99 32.7934 173.614 32.4722C172.132 32.331 172.132 31.9902 171.811 31.0264H171.813Z" fill="white"/>
<path d="M158.324 47.9841C158.09 48.8238 158.949 48.965 159.529 48.8798C160.108 48.7946 160.152 48.2518 160.424 47.675C160.697 47.0981 159.799 46.6941 159.22 46.7793C158.64 46.8644 158.558 47.1444 158.324 47.9841Z" fill="#46FFFF"/>
<path d="M162.213 29.7728C162.398 29.5246 162.749 29.4735 162.994 29.6584C163.243 29.8434 163.294 30.1939 163.109 30.4398C162.924 30.688 162.573 30.7391 162.328 30.5542C162.079 30.3692 162.028 30.0187 162.213 29.7728Z" fill="#46FFFF"/>
<path d="M160.487 31.6251C160.363 31.5326 160.188 31.5594 160.096 31.6835C160.003 31.8077 160.03 31.9829 160.154 32.0754C160.278 32.1679 160.453 32.1411 160.546 32.017C160.638 31.8929 160.612 31.7176 160.487 31.6251Z" fill="#46FFFF"/>
<path d="M166.238 37.1966C165.995 37.3888 165.644 37.3475 165.452 37.1041C165.26 36.8631 165.301 36.5102 165.544 36.3179C165.785 36.1256 166.138 36.167 166.331 36.4104C166.523 36.6538 166.481 37.0043 166.238 37.1966Z" fill="#46FFFF"/>
<path d="M155.75 31.3403C155.879 31.0142 156.244 30.8511 156.56 30.9777C156.879 31.1042 157.032 31.4718 156.901 31.7979C156.772 32.1241 156.407 32.2872 156.09 32.1606C155.772 32.034 155.618 31.6665 155.75 31.3403Z" fill="#46FFFF"/>
<path d="M155.511 36.1937C155.353 36.1305 155.17 36.2108 155.104 36.3763C155.039 36.5394 155.117 36.7244 155.275 36.7876C155.433 36.8509 155.615 36.7682 155.681 36.6051C155.747 36.442 155.669 36.257 155.511 36.1937Z" fill="#46FFFF"/>
<path d="M162.228 35.4222C162.298 35.5901 162.22 35.7897 162.052 35.8652C161.885 35.9406 161.692 35.8651 161.624 35.6948C161.554 35.5268 161.631 35.3272 161.799 35.2542C161.967 35.1788 162.16 35.2542 162.23 35.4246L162.228 35.4222Z" fill="#46FFFF"/>
<path d="M158.789 36.8582C158.765 36.6757 158.889 36.5053 159.069 36.4761C159.249 36.4469 159.415 36.5734 159.439 36.756C159.463 36.9385 159.339 37.1089 159.159 37.1381C158.979 37.1673 158.814 37.0408 158.789 36.8582Z" fill="#46FFFF"/>
<path d="M157.315 36.8485C157.224 36.8631 157.161 36.9483 157.173 37.0408C157.186 37.1333 157.268 37.1941 157.358 37.1795C157.448 37.1649 157.512 37.0797 157.499 36.9872C157.487 36.8948 157.405 36.8339 157.315 36.8485Z" fill="#46FFFF"/>
<path d="M163.359 39.3993C163.556 39.4772 163.654 39.6963 163.578 39.8886C163.503 40.0809 163.282 40.1734 163.084 40.0955C162.887 40.0176 162.79 39.7985 162.865 39.6062C162.941 39.414 163.162 39.3215 163.359 39.3993Z" fill="#46FFFF"/>
<path d="M159.483 39.2533C159.522 39.1584 159.473 39.0488 159.373 39.0074C159.276 38.9685 159.164 39.0147 159.125 39.1097C159.086 39.2046 159.137 39.3141 159.234 39.3531C159.334 39.392 159.444 39.3458 159.483 39.2508V39.2533Z" fill="#46FFFF"/>
<path d="M159.237 42.3104C159.135 42.3518 159.015 42.3056 158.972 42.2058C158.928 42.106 158.972 41.9891 159.074 41.9478C159.176 41.9064 159.295 41.9526 159.339 42.0524C159.385 42.1522 159.339 42.269 159.237 42.3104Z" fill="#46FFFF"/>
<path d="M157.601 39.7474C157.711 39.7328 157.816 39.8083 157.833 39.9154C157.85 40.0225 157.774 40.1223 157.665 40.1393C157.555 40.1539 157.451 40.0784 157.434 39.9713C157.417 39.8618 157.492 39.7645 157.601 39.7474Z" fill="#46FFFF"/>
<path d="M161.838 41.5997C161.928 41.5607 162.033 41.5997 162.072 41.6873C162.111 41.7749 162.067 41.8772 161.977 41.9161C161.887 41.9551 161.782 41.9161 161.746 41.8285C161.707 41.7409 161.751 41.6386 161.841 41.5997H161.838Z" fill="#46FFFF"/>
<path d="M162.549 43.0138C162.53 43.0601 162.476 43.0844 162.427 43.0674C162.379 43.0504 162.357 42.9968 162.376 42.9481C162.396 42.9019 162.449 42.8775 162.498 42.8946C162.547 42.9116 162.568 42.9652 162.549 43.0138Z" fill="#46FFFF"/>
<path d="M161.587 42.0159C161.619 41.9745 161.678 41.9672 161.719 41.9964C161.76 42.0257 161.768 42.0841 161.736 42.1254C161.704 42.1668 161.646 42.1766 161.605 42.1449C161.563 42.1157 161.556 42.0573 161.587 42.0159Z" fill="#46FFFF"/>
<path d="M162.644 27.3169C162.714 27.4873 162.636 27.6844 162.468 27.7599C162.301 27.8353 162.108 27.7599 162.04 27.5895C161.97 27.4216 162.047 27.222 162.215 27.1465C162.383 27.0711 162.576 27.1465 162.646 27.3169H162.644Z" fill="#46FFFF"/>
<path d="M160.064 23.1888C160.04 23.0063 160.164 22.8359 160.344 22.8067C160.524 22.7775 160.689 22.904 160.714 23.0866C160.738 23.2691 160.614 23.4395 160.434 23.4687C160.254 23.4979 160.088 23.3714 160.064 23.1888Z" fill="#46FFFF"/>
<path d="M158.704 43.8609C158.522 43.6296 158.183 43.5907 157.952 43.7732C157.721 43.9558 157.682 44.2941 157.864 44.5253C158.049 44.7566 158.385 44.7955 158.616 44.613C158.848 44.428 158.887 44.0921 158.704 43.8609Z" fill="#46FFFF"/>
<path d="M164.961 43.3278C164.87 43.3424 164.807 43.4276 164.819 43.5201C164.832 43.6126 164.914 43.6735 165.004 43.6589C165.094 43.6443 165.158 43.5591 165.145 43.4666C165.133 43.3741 165.051 43.3132 164.961 43.3278Z" fill="#46FFFF"/>
<path d="M166.267 45.976C166.464 46.0539 166.562 46.273 166.486 46.4653C166.411 46.6576 166.189 46.7501 165.992 46.6722C165.795 46.5943 165.698 46.3752 165.773 46.1829C165.849 45.9906 166.07 45.8982 166.267 45.976Z" fill="#46FFFF"/>
<path d="M166.418 44.742C166.457 44.6471 166.408 44.5375 166.309 44.4962C166.211 44.4572 166.099 44.5035 166.06 44.5984C166.022 44.6933 166.073 44.8028 166.17 44.8418C166.27 44.8807 166.379 44.8345 166.418 44.7396V44.742Z" fill="#46FFFF"/>
<path d="M166.883 48.7922C166.781 48.8336 166.661 48.7873 166.617 48.6875C166.574 48.5877 166.618 48.4709 166.72 48.4295C166.822 48.3881 166.941 48.4344 166.985 48.5342C167.031 48.634 166.985 48.7508 166.883 48.7922Z" fill="#46FFFF"/>
<path d="M164.951 47.4851C165.06 47.4705 165.165 47.546 165.182 47.6531C165.199 47.7602 165.123 47.86 165.014 47.877C164.904 47.8916 164.8 47.8161 164.783 47.709C164.766 47.5995 164.841 47.5022 164.951 47.4851Z" fill="#46FFFF"/>
<path d="M165.084 49.1451C164.902 48.9139 164.564 48.875 164.332 49.0575C164.101 49.2401 164.062 49.5784 164.245 49.8096C164.43 50.0408 164.766 50.0798 164.997 49.8972C165.228 49.7123 165.267 49.3764 165.084 49.1451Z" fill="#46FFFF"/>
<path d="M160.823 47.4097C160.733 47.4243 160.67 47.5095 160.682 47.602C160.694 47.6944 160.777 47.7553 160.867 47.7407C160.957 47.7261 161.02 47.6409 161.008 47.5484C160.996 47.4559 160.913 47.3951 160.823 47.4097Z" fill="#46FFFF"/>
<path d="M162.13 50.0554C162.327 50.1333 162.425 50.3524 162.349 50.5447C162.274 50.737 162.052 50.8295 161.855 50.7516C161.658 50.6737 161.561 50.4546 161.636 50.2623C161.712 50.0701 161.933 49.9776 162.13 50.0554Z" fill="#46FFFF"/>
<path d="M162.281 48.8238C162.32 48.7289 162.271 48.6194 162.171 48.578C162.074 48.5391 161.962 48.5853 161.923 48.6802C161.884 48.7752 161.935 48.8847 162.033 48.9236C162.133 48.9626 162.242 48.9163 162.281 48.8214V48.8238Z" fill="#46FFFF"/>
<path d="M162.746 52.8716C162.644 52.913 162.525 52.8667 162.481 52.7669C162.437 52.6671 162.481 52.5503 162.583 52.5089C162.685 52.4675 162.804 52.5138 162.848 52.6136C162.894 52.7134 162.848 52.8302 162.746 52.8716Z" fill="#46FFFF"/>
<path d="M161.111 50.3086C161.22 50.294 161.325 50.3695 161.342 50.4765C161.359 50.5836 161.284 50.6834 161.174 50.7005C161.065 50.7151 160.96 50.6396 160.943 50.5325C160.926 50.423 161.001 50.3256 161.111 50.3086Z" fill="#46FFFF"/>
<path d="M161.6 51.9515C161.417 51.7203 161.079 51.6814 160.848 51.8639C160.616 52.0465 160.577 52.3848 160.76 52.616C160.945 52.8472 161.281 52.8862 161.512 52.7036C161.743 52.5187 161.782 52.1828 161.6 51.9515Z" fill="#46FFFF"/>
<path d="M163.734 44.8734C163.366 44.4085 162.692 44.3307 162.23 44.6982C161.765 45.0657 161.814 45.4941 162.181 45.959C162.549 46.4239 163.096 46.7452 163.561 46.3777C164.026 46.0101 164.104 45.3359 163.736 44.8734H163.734Z" fill="#46FFFF"/>
<path d="M168.689 46.1318C168.652 46.4409 168.372 46.6624 168.063 46.6283C167.754 46.5918 167.533 46.3119 167.567 46.0028C167.603 45.6937 167.883 45.4722 168.192 45.5063C168.501 45.5403 168.723 45.8227 168.689 46.1318Z" fill="#46FFFF"/>
<path d="M167.654 40.7478C167.81 40.7648 167.949 40.6553 167.968 40.4995C167.985 40.3437 167.876 40.205 167.72 40.1855C167.564 40.1685 167.426 40.278 167.406 40.4338C167.389 40.5896 167.499 40.7283 167.654 40.7478Z" fill="#46FFFF"/>
<path d="M161.422 41.6727C161.536 41.3831 161.865 41.2419 162.155 41.3563C162.444 41.4707 162.585 41.7993 162.471 42.0889C162.356 42.3786 162.028 42.5197 161.738 42.4053C161.449 42.2909 161.308 41.9624 161.422 41.6727Z" fill="#46FFFF"/>
<path d="M160.222 43.9315C160.076 43.873 159.913 43.9436 159.855 44.0897C159.797 44.2357 159.867 44.3988 160.013 44.4572C160.159 44.5156 160.322 44.4426 160.381 44.299C160.439 44.153 160.366 43.9899 160.222 43.9315Z" fill="#46FFFF"/>
<path d="M165.824 41.1981C165.678 41.0861 165.647 40.8743 165.754 40.7234C165.863 40.575 166.068 40.5433 166.216 40.6553C166.362 40.7672 166.394 40.979 166.287 41.1299C166.18 41.2808 165.973 41.31 165.824 41.1981Z" fill="#46FFFF"/>
<path d="M166.924 42.2496C166.871 42.325 166.885 42.4297 166.958 42.4857C167.031 42.5417 167.136 42.5271 167.19 42.4516C167.243 42.3762 167.228 42.2715 167.155 42.2131C167.082 42.1571 166.978 42.1717 166.924 42.2471V42.2496Z" fill="#46FFFF"/>
<path d="M167.411 36.9702C167.426 37.0724 167.523 37.143 167.63 37.1284C167.737 37.1138 167.81 37.0164 167.796 36.9142C167.781 36.812 167.681 36.7414 167.577 36.756C167.472 36.7706 167.397 36.868 167.414 36.9702H167.411Z" fill="#46FFFF"/>
<path d="M164.33 34.3269C164.284 34.2952 164.221 34.3025 164.187 34.3488C164.152 34.3926 164.162 34.4559 164.206 34.4875C164.252 34.5192 164.315 34.5119 164.35 34.4656C164.384 34.4218 164.374 34.3585 164.33 34.3269Z" fill="#46FFFF"/>
<path d="M166.423 36.3008C166.333 36.369 166.151 36.3203 166.08 36.2351C166.009 36.1499 166.08 36.0599 166.17 35.9917C166.258 35.9236 166.387 35.9382 166.457 36.0234C166.528 36.1085 166.511 36.2351 166.423 36.3033V36.3008Z" fill="#46FFFF"/>
<path d="M167.209 35.8213C167.243 35.8651 167.309 35.8724 167.352 35.8384C167.396 35.8043 167.404 35.741 167.37 35.6996C167.335 35.6558 167.27 35.6485 167.226 35.685C167.182 35.7191 167.175 35.7824 167.209 35.8238V35.8213Z" fill="#46FFFF"/>
<path d="M164.51 47.0981C164.413 47.1127 164.32 47.047 164.306 46.9521C164.291 46.8572 164.359 46.7671 164.459 46.7525C164.556 46.7379 164.649 46.8036 164.663 46.8985C164.678 46.9935 164.61 47.0835 164.51 47.0981Z" fill="#46FFFF"/>
<path d="M165.323 47.0665C165.331 47.1152 165.377 47.1468 165.425 47.1395C165.474 47.1322 165.508 47.0884 165.501 47.0397C165.494 46.991 165.447 46.9594 165.399 46.9667C165.35 46.974 165.316 47.0178 165.323 47.0665Z" fill="#46FFFF"/>
<path d="M164.187 45.533C164.218 45.4917 164.277 45.4844 164.318 45.5136C164.359 45.5428 164.369 45.6012 164.338 45.6426C164.306 45.6839 164.248 45.6937 164.206 45.662C164.165 45.6328 164.155 45.5744 164.187 45.533Z" fill="#46FFFF"/>
<path d="M163.892 45.8422C163.871 45.8276 163.841 45.8324 163.827 45.8519C163.81 45.8713 163.814 45.9005 163.836 45.9151C163.858 45.9297 163.888 45.9248 163.902 45.9054C163.919 45.8859 163.914 45.8567 163.892 45.8422Z" fill="#46FFFF"/>
<path d="M164.863 46.7573C164.822 46.789 164.763 46.7817 164.729 46.7427C164.695 46.7038 164.705 46.6454 164.746 46.6137C164.788 46.5821 164.846 46.5894 164.88 46.6283C164.912 46.6673 164.904 46.7257 164.863 46.7573Z" fill="#46FFFF"/>
<path d="M163.047 35.6023C162.989 35.6826 162.877 35.6996 162.799 35.6412C162.721 35.5828 162.707 35.4733 162.765 35.3929C162.824 35.3126 162.936 35.2956 163.013 35.354C163.091 35.4124 163.106 35.5219 163.047 35.6023Z" fill="#46FFFF"/>
<path d="M169.552 48.4952C169.406 48.3833 169.375 48.1715 169.482 48.0206C169.589 47.8697 169.796 47.8405 169.944 47.9524C170.09 48.0644 170.122 48.2762 170.015 48.4271C169.905 48.5756 169.701 48.6072 169.552 48.4952Z" fill="#46FFFF"/>
<path d="M157.47 49.5467C157.417 49.6222 157.431 49.7268 157.504 49.7828C157.577 49.8388 157.682 49.8242 157.735 49.7488C157.789 49.6733 157.774 49.5662 157.701 49.5102C157.628 49.4542 157.524 49.4688 157.47 49.5443V49.5467Z" fill="#46FFFF"/>
<path d="M165.948 49.0015C166.233 49.077 166.528 48.909 166.606 48.6218C166.683 48.337 166.513 48.0425 166.226 47.9646C165.941 47.8867 165.647 48.0571 165.569 48.3443C165.493 48.6291 165.661 48.9236 165.948 49.0015Z" fill="#46FFFF"/>
<path d="M162.87 54.2785C163.442 54.4318 164.028 54.0935 164.182 53.5215C164.335 52.9495 164.04 52.6331 163.469 52.4797C162.897 52.3264 162.266 52.3945 162.113 52.9665C161.96 53.5385 162.298 54.1251 162.87 54.2785Z" fill="#46FFFF"/>
<path d="M163.106 50.7637C163.186 51.0656 163.009 51.3747 162.707 51.455C162.405 51.5353 162.096 51.3576 162.016 51.0558C161.936 50.754 162.113 50.4449 162.415 50.3646C162.717 50.2842 163.026 50.4619 163.106 50.7637Z" fill="#46FFFF"/>
<path d="M162.722 48.2348C162.873 48.1934 162.963 48.0401 162.921 47.8892C162.882 47.7383 162.727 47.6482 162.576 47.6896C162.425 47.7309 162.335 47.8843 162.376 48.0352C162.418 48.1861 162.571 48.2762 162.722 48.2348Z" fill="#46FFFF"/>
<path d="M0.710837 74.729C1.09777 74.0864 10.4475 58.1923 10.9293 57.2285C11.4111 56.2646 11.5718 56.5859 12.2142 57.0678C13.3215 57.8978 18.8043 60.7651 21.2135 62.2109C22.1772 62.7902 22.0579 62.6855 21.5347 63.6567C18.6972 68.9263 15.8037 74.1473 13.246 79.5483C12.168 81.4639 12.5354 83.7494 11.5718 83.4282C9.64196 82.7856 12.7204 80.6217 7.39336 78.896C5.06445 78.1415 2.57007 77.3237 1.35329 76.9756C-0.897738 76.333 0.228995 75.5298 0.710837 74.7241V74.729Z" fill="white"/>
<path d="M60.179 76.0142C60.437 75.5006 67.0221 55.1693 70.3975 44.6666C70.6554 43.8633 70.3975 43.3814 71.6824 43.542C72.9673 43.7027 79.7861 44.3453 81.071 44.6666C82.3559 44.9878 82.9984 44.6666 82.6771 46.273C82.4314 47.4997 76.8926 66.1126 73.7825 76.5156C72.4855 80.8554 73.2885 80.3735 70.2344 79.249C69.4654 78.9666 62.8413 76.9975 61.0721 76.9975C59.3029 76.9975 59.8553 76.6543 60.1766 76.0118L60.179 76.0142Z" fill="white"/>
<path d="M72.9673 36.0088C73.6097 34.3366 75.0699 29.7704 75.6077 27.9497C75.7975 27.3072 75.5687 26.6622 77.63 27.0078C78.5936 27.1684 83.7382 27.6504 87.4347 27.9716C88.7148 28.0836 88.4106 28.6142 88.2378 29.2568C88.0285 30.0333 86.7923 34.3999 86.1474 36.33C85.3467 38.7348 85.6655 41.1518 84.8625 41.1518C83.7382 41.1518 84.7018 39.2825 82.2902 39.061C80.521 38.9004 75.4714 38.0971 73.2885 38.0971C71.843 38.0971 72.1642 38.0971 72.9673 36.0088Z" fill="white"/>
<path d="M95.4682 20.0952C95.7895 20.0952 95.7724 20.0465 95.697 20.5552C95.6216 21.0664 86.0528 63.9585 85.4104 65.565C84.6511 67.4635 84.6998 68.6416 86.1453 68.6416C87.5908 68.6416 88.6032 68.7389 89.4282 69.0261C90.8226 69.5081 92.896 70.1628 94.7333 70.5498C97.7874 71.1924 96.9162 73.4658 98.0405 73.4658C99.0042 73.4658 98.5224 71.538 98.9117 69.4253C98.9604 69.16 100.922 61.5294 103.251 51.7422C106.461 38.2578 110.298 21.395 110.483 20.5552C110.763 19.292 110.483 19.5378 111.702 19.4526C113.953 19.292 117.743 18.9926 121.828 18.8101C124.386 18.6957 125.043 18.3281 125.043 21.0615C125.043 22.186 126.167 22.668 126.167 20.9009C126.167 16.4856 126.328 12.0094 126.328 7.55762C126.328 6.11182 126.649 5.95117 124.788 5.95117C122.215 5.95117 105.823 6.57184 101.805 6.73249L101.435 6.74709C94.9475 7.00753 88.5205 7.2631 81.6481 7.55762C80.0396 7.62577 80.0396 7.69636 80.0396 9.30524V9.32471C80.0396 11.5762 80.3608 16.3979 80.3608 19.1313C80.3608 20.4579 80.2002 20.7159 81.6457 20.7159C83.0912 20.7159 92.4141 20.0952 95.4682 20.0952Z" fill="white"/>
<path d="M88.1433 72.9595C87.5009 72.4459 87.8756 71.7814 88.1433 71.5137C88.4767 70.5498 89.4282 71.5137 89.4282 72.4776C89.4282 73.4414 88.9464 73.6021 88.1433 72.9595Z" fill="white"/>
<path d="M43.7164 76.518C43.7164 77.2287 43.4608 77.8032 42.7527 77.8032C42.0445 77.8032 41.4678 77.2263 41.4678 76.518C41.4678 75.8097 42.0421 75.2328 42.7527 75.2328C43.4633 75.2328 43.7164 75.8073 43.7164 76.518Z" fill="#FF58E2"/>
<path d="M62.6515 39.1146C62.2086 39.1998 61.8193 39.1097 61.7341 38.6667C61.6489 38.2237 61.9385 37.7953 62.3839 37.7101C62.8268 37.625 63.2551 37.9146 63.3402 38.36C63.4254 38.803 63.0969 39.0318 62.654 39.117L62.6515 39.1146Z" fill="#FF58E2"/>
<path d="M66.5746 21.5069C66.745 21.67 67.0127 21.6627 67.1757 21.4947C67.3388 21.3268 67.3315 21.0566 67.1636 20.8935C66.9956 20.7305 66.7255 20.7378 66.5625 20.9057C66.3994 21.0761 66.4067 21.3438 66.5746 21.5069Z" fill="#FF58E2"/>
<path d="M66.6574 27.6333C67.3193 27.8548 67.4653 27.1733 67.4215 26.706C67.3777 26.2386 66.9445 26.1827 66.4943 25.9417C66.0441 25.7007 65.6864 26.4017 65.7302 26.869C65.774 27.3364 65.9955 27.4118 66.6574 27.6333Z" fill="#FF58E2"/>
<path d="M52.3967 29.1181C52.5062 28.8966 52.7763 28.8065 52.9978 28.916C53.2192 29.0256 53.3093 29.2957 53.1998 29.5172C53.0902 29.7387 52.8201 29.8288 52.5987 29.7193C52.3772 29.6097 52.2872 29.3396 52.3967 29.1181Z" fill="#FF58E2"/>
<path d="M52.3236 31.7371C52.2457 31.832 52.2579 31.9732 52.3528 32.0511C52.4477 32.1289 52.5888 32.1168 52.6667 32.0219C52.7446 31.9269 52.7324 31.7858 52.6375 31.7079C52.5426 31.63 52.4015 31.6421 52.3236 31.7371Z" fill="#FF58E2"/>
<path d="M58.4419 25.7153C58.5855 25.9174 58.5392 26.1973 58.3372 26.3384C58.1353 26.482 57.8554 26.4358 57.7118 26.2338C57.5682 26.0317 57.6145 25.7518 57.8165 25.6107C58.0184 25.4671 58.2983 25.5133 58.4419 25.7153Z" fill="#FF58E2"/>
<path d="M56.6917 25.8516C56.7915 25.781 56.8158 25.6399 56.7452 25.5401C56.6747 25.4403 56.5335 25.4159 56.4337 25.489C56.334 25.5596 56.3096 25.7007 56.3826 25.8005C56.4532 25.9003 56.5944 25.9247 56.6941 25.8541L56.6917 25.8516Z" fill="#FF58E2"/>
<path d="M55.6579 34.3025C55.4023 34.1857 55.2855 33.8887 55.3999 33.6405C55.5143 33.3898 55.8136 33.2827 56.0691 33.3995C56.3247 33.5163 56.4415 33.8133 56.3271 34.064C56.2127 34.3147 55.9134 34.4218 55.6579 34.3025Z" fill="#FF58E2"/>
<path d="M58.736 35.2664C58.68 35.3905 58.736 35.539 58.865 35.5974C58.994 35.6558 59.1424 35.6023 59.2008 35.4782C59.2568 35.354 59.2008 35.2055 59.0718 35.1471C58.9428 35.0887 58.7944 35.1423 58.736 35.2664Z" fill="#FF58E2"/>
<path d="M55.4264 30.4981C55.5652 30.4495 55.7185 30.5201 55.772 30.6564C55.8255 30.7927 55.7574 30.9436 55.6187 30.9923C55.48 31.0409 55.3267 30.9703 55.2731 30.834C55.2196 30.6977 55.2877 30.5468 55.4264 30.4981Z" fill="#FF58E2"/>
<path d="M54.801 30.0503C54.7742 29.9822 54.6963 29.9456 54.6282 29.9724C54.5601 29.9968 54.526 30.0722 54.5503 30.1404C54.5771 30.2085 54.655 30.245 54.7231 30.2182C54.7912 30.1939 54.8253 30.1185 54.801 30.0503Z" fill="#FF58E2"/>
<path d="M57.0277 34.0348C56.8817 34.047 56.7479 33.9399 56.7333 33.7963C56.7187 33.6526 56.8233 33.5236 56.9718 33.5115C57.1202 33.4993 57.2516 33.6064 57.2662 33.75C57.2808 33.8936 57.1762 34.0226 57.0277 34.0348Z" fill="#FF58E2"/>
<path d="M56.3683 34.4851C56.3756 34.5581 56.4413 34.6116 56.5144 34.6043C56.5874 34.5995 56.6409 34.5337 56.6336 34.4632C56.6263 34.3901 56.5606 34.3366 56.4876 34.3439C56.4146 34.3488 56.361 34.4145 56.3683 34.4851Z" fill="#FF58E2"/>
<path d="M58.4658 30.8681C58.5364 30.7148 58.7141 30.6442 58.8649 30.7123C59.0158 30.7805 59.0791 30.9606 59.0085 31.1164C58.9379 31.2697 58.7603 31.3403 58.6094 31.2722C58.4585 31.204 58.3953 31.0239 58.4658 30.8681Z" fill="#FF58E2"/>
<path d="M57.5584 33.3752C57.483 33.3411 57.3929 33.3752 57.3589 33.453C57.3248 33.5309 57.3564 33.621 57.4319 33.6551C57.5073 33.6891 57.5974 33.6551 57.6314 33.5772C57.6655 33.4993 57.6339 33.4092 57.5584 33.3752Z" fill="#FF58E2"/>
<path d="M57.6798 37.6079C57.709 37.6907 57.6676 37.7856 57.5849 37.8172C57.5021 37.8489 57.4121 37.8075 57.3829 37.7247C57.3537 37.642 57.395 37.5471 57.4778 37.5154C57.5605 37.4838 57.6506 37.5252 57.6798 37.6079Z" fill="#FF58E2"/>
<path d="M57.512 36.9021C57.5534 36.885 57.5753 36.8388 57.5607 36.7974C57.5461 36.756 57.4998 36.7341 57.4585 36.7511C57.4171 36.7682 57.3952 36.8144 57.4098 36.8558C57.4244 36.8972 57.4706 36.9191 57.512 36.9021Z" fill="#FF58E2"/>
<path d="M58.4293 33.0052C58.422 32.9176 58.4877 32.8372 58.5728 32.8275C58.6605 32.8178 58.7359 32.881 58.7432 32.9711C58.7505 33.0587 58.6848 33.1391 58.5996 33.1488C58.512 33.1585 58.4366 33.0952 58.4293 33.0052Z" fill="#FF58E2"/>
<path d="M58.4101 33.7354C58.3662 33.7403 58.3346 33.7792 58.337 33.823C58.3419 33.8669 58.3784 33.8985 58.4222 33.8936C58.466 33.8888 58.4977 33.8498 58.4952 33.806C58.4904 33.7622 58.4539 33.7306 58.4101 33.7354Z" fill="#FF58E2"/>
<path d="M56.5726 31.9975C56.5458 31.9245 56.5799 31.8417 56.6529 31.815C56.7234 31.7882 56.8062 31.8271 56.8329 31.9001C56.8597 31.9732 56.8256 32.0559 56.7526 32.0827C56.6821 32.1095 56.5993 32.0705 56.5726 31.9975Z" fill="#FF58E2"/>
<path d="M47.8606 32.9297C47.8241 32.9443 47.807 32.9833 47.8216 33.0198C47.8362 33.0563 47.8752 33.0758 47.9117 33.0612C47.9482 33.0466 47.9652 33.0076 47.9506 32.9711C47.936 32.9346 47.8971 32.9151 47.8606 32.9297Z" fill="#FF58E2"/>
<path d="M57.7065 34.6384C57.743 34.6555 57.7601 34.7017 57.743 34.7382C57.726 34.7747 57.6822 34.7918 57.6457 34.7747C57.6092 34.7577 57.5921 34.7114 57.6092 34.6749C57.6262 34.6384 57.67 34.6214 57.7065 34.6384Z" fill="#FF58E2"/>
<path d="M57.4194 34.4607C57.4267 34.4412 57.4194 34.4194 57.4 34.4121C57.3806 34.4023 57.3587 34.4121 57.3514 34.4291C57.3441 34.4485 57.3514 34.4704 57.3708 34.4777C57.3903 34.4874 57.4097 34.4777 57.4194 34.4607Z" fill="#FF58E2"/>
<path d="M48.0237 32.5233C47.9921 32.4965 47.9872 32.4502 48.014 32.4186C48.0407 32.387 48.0845 32.3821 48.1162 32.4089C48.1478 32.4356 48.1527 32.4819 48.1259 32.5135C48.0991 32.5452 48.0529 32.55 48.0237 32.5233Z" fill="#FF58E2"/>
<path d="M49.8222 31.3208C49.8101 31.3354 49.8125 31.3597 49.8271 31.3743C49.8441 31.3865 49.866 31.3865 49.8781 31.3695C49.8903 31.3524 49.8878 31.3306 49.8732 31.316C49.8587 31.3014 49.8344 31.3038 49.8222 31.3208Z" fill="#FF58E2"/>
<path d="M60.4032 34.3804C60.2888 34.6311 60.4032 34.9256 60.6612 35.0449C60.9167 35.1617 61.2184 35.0546 61.3304 34.8064C61.4423 34.5581 61.3304 34.2611 61.0724 34.1419C60.8169 34.025 60.5152 34.1321 60.4032 34.3804Z" fill="#FF58E2"/>
<path d="M56.1808 29.415C56.1248 29.5391 56.1808 29.6876 56.3098 29.746C56.4388 29.8045 56.5872 29.7509 56.6456 29.6268C56.7016 29.5026 56.6456 29.3542 56.5167 29.2957C56.3877 29.2373 56.2392 29.2909 56.1808 29.415Z" fill="#FF58E2"/>
<path d="M63.0653 32.0949C62.9193 32.107 62.7855 31.9999 62.7709 31.8539C62.7563 31.7103 62.8609 31.5813 63.0094 31.5691C63.1554 31.5569 63.2892 31.664 63.3038 31.8077C63.3184 31.9513 63.2138 32.0803 63.0653 32.0924V32.0949Z" fill="#FF58E2"/>
<path d="M64.2775 32.1241C64.2848 32.1971 64.3505 32.2506 64.4235 32.2433C64.4965 32.2385 64.5501 32.1728 64.5428 32.1022C64.5355 32.0292 64.4698 31.9756 64.3968 31.9829C64.3238 31.9878 64.2702 32.0535 64.2775 32.1241Z" fill="#FF58E2"/>
<path d="M58.3467 36.4639C58.0936 36.644 58.0352 36.997 58.2153 37.2501C58.3954 37.5033 58.7483 37.5617 59.0014 37.3816C59.2544 37.2014 59.3128 36.8485 59.1328 36.5954C58.9527 36.3422 58.5998 36.2838 58.3467 36.4639Z" fill="#FF58E2"/>
<path d="M55.2609 31.4912C54.7547 31.8515 54.6355 32.5549 54.9981 33.0612C55.3583 33.5675 55.8133 33.5407 56.3195 33.1805C56.8257 32.8202 57.1932 32.2628 56.833 31.7566C56.4728 31.2503 55.7695 31.131 55.2633 31.4937L55.2609 31.4912Z" fill="#FF58E2"/>
<path d="M62.6348 26.0317C62.9585 26.0853 63.1751 26.392 63.1215 26.7157C63.068 27.0394 62.7614 27.2561 62.4377 27.2025C62.114 27.149 61.8975 26.8423 61.951 26.5185C62.0045 26.1948 62.3112 25.9782 62.6348 26.0317Z" fill="#FF58E2"/>
<path d="M61.2985 24.8537C61.3253 24.6931 61.2158 24.5397 61.0552 24.5105C60.8946 24.4837 60.7412 24.5933 60.7145 24.7539C60.6877 24.9145 60.7972 25.0679 60.9578 25.0971C61.1184 25.1239 61.2718 25.0143 61.2985 24.8537Z" fill="#FF58E2"/>
<path d="M58.819 32.9809C58.5196 32.8446 58.3882 32.4916 58.5245 32.1947C58.6608 31.8953 59.0137 31.7639 59.3105 31.9002C59.6074 32.0365 59.7413 32.3894 59.605 32.6863C59.4687 32.9833 59.1159 33.1172 58.819 32.9809Z" fill="#FF58E2"/>
<path d="M61.1257 34.3585C61.0575 34.507 61.1257 34.6847 61.2717 34.7528C61.4201 34.821 61.5978 34.7528 61.6659 34.6068C61.7341 34.4583 61.6659 34.2806 61.5199 34.2149C61.3715 34.1468 61.1938 34.2149 61.1281 34.3609L61.1257 34.3585Z" fill="#FF58E2"/>
<path d="M58.5558 28.3319C58.4293 28.4804 58.2054 28.5023 58.0545 28.3806C57.9036 28.2589 57.8817 28.0398 58.0083 27.8913C58.1348 27.7429 58.3587 27.7209 58.5096 27.8426C58.6605 27.9643 58.6824 28.1834 58.5558 28.3319Z" fill="#FF58E2"/>
<path d="M59.7167 27.2366C59.7922 27.2974 59.9041 27.2877 59.9674 27.2123C60.0307 27.1392 60.0209 27.0297 59.9431 26.9688C59.8652 26.908 59.7557 26.9177 59.6924 26.9932C59.6291 27.0686 59.6389 27.1757 59.7167 27.2366Z" fill="#FF58E2"/>
<path d="M54.9058 27.351C55.0153 27.3412 55.0956 27.2415 55.0834 27.1295C55.0713 27.0175 54.9764 26.9348 54.8669 26.9445C54.7573 26.9542 54.677 27.054 54.6892 27.166C54.7014 27.278 54.7963 27.3607 54.9058 27.351Z" fill="#FF58E2"/>
<path d="M51.2651 29.5392C51.2286 29.5854 51.2359 29.6536 51.2797 29.6901C51.3235 29.729 51.3892 29.7217 51.4257 29.6755C51.4622 29.6292 51.4549 29.5611 51.4111 29.5246C51.3673 29.4856 51.3016 29.4929 51.2651 29.5392Z" fill="#FF58E2"/>
<path d="M54.1489 28.3538C54.217 28.4512 54.1538 28.641 54.0613 28.7116C53.9664 28.7798 53.8763 28.6994 53.8082 28.6021C53.7401 28.5047 53.762 28.3708 53.8569 28.3027C53.9518 28.2345 54.0808 28.2564 54.1489 28.3538Z" fill="#FF58E2"/>
<path d="M54.3969 27.996C54.4432 27.9619 54.4554 27.8937 54.4213 27.8451C54.3872 27.7964 54.3215 27.7842 54.2753 27.8207C54.229 27.8548 54.2169 27.923 54.2509 27.9692C54.285 28.0179 54.3507 28.0301 54.3969 27.996Z" fill="#FF58E2"/>
<path d="M60.486 30.1063C60.4957 30.211 60.4227 30.3034 60.3205 30.3132C60.2183 30.3229 60.1283 30.2475 60.1185 30.1428C60.1088 30.0381 60.1818 29.9481 60.284 29.9383C60.3862 29.9286 60.4763 30.0041 60.486 30.1087V30.1063Z" fill="#FF58E2"/>
<path d="M60.4957 29.2495C60.5468 29.2446 60.5833 29.1984 60.5784 29.1473C60.5736 29.0962 60.5273 29.0572 60.4787 29.0621C60.43 29.067 60.3911 29.1132 60.3959 29.1643C60.4008 29.2154 60.447 29.2544 60.4957 29.2495Z" fill="#FF58E2"/>
<path d="M60.3521 32.7983C60.3107 32.7642 60.3034 32.7009 60.3375 32.6571C60.3716 32.6157 60.4324 32.6084 60.4738 32.6449C60.5151 32.679 60.5224 32.7423 60.4884 32.7861C60.4543 32.8275 60.3935 32.8348 60.3521 32.7983Z" fill="#FF58E2"/>
<path d="M60.6586 33.1244C60.6416 33.1463 60.644 33.1779 60.6659 33.1949C60.6878 33.2119 60.717 33.2095 60.734 33.1876C60.751 33.1657 60.7485 33.1341 60.7267 33.1171C60.7048 33.1001 60.6756 33.1025 60.6586 33.1244Z" fill="#FF58E2"/>
<path d="M60.145 29.7168C60.1767 29.7607 60.1669 29.8239 60.1231 29.8556C60.0793 29.8872 60.0185 29.8775 59.9868 29.8312C59.9552 29.7874 59.9649 29.7241 60.0087 29.6925C60.0525 29.6609 60.1134 29.6706 60.145 29.7168Z" fill="#FF58E2"/>
<path d="M59.9309 29.32C59.9528 29.303 59.9576 29.2738 59.943 29.2495C59.9284 29.2276 59.8969 29.2228 59.875 29.2373C59.8531 29.2544 59.8482 29.2835 59.8628 29.3078C59.8774 29.3297 59.909 29.3346 59.9309 29.32Z" fill="#FF58E2"/>
<path d="M49.1601 31.5594C49.328 31.5788 49.4497 31.7273 49.4302 31.8928C49.4108 32.0559 49.2575 32.1727 49.0896 32.1533C48.9216 32.1338 48.8 31.9829 48.8194 31.8198C48.8389 31.6567 48.9922 31.5399 49.1601 31.5594Z" fill="#FF58E2"/>
<path d="M47.1159 32.1776C47.1986 32.1436 47.2935 32.1801 47.33 32.2604C47.3665 32.3407 47.33 32.4332 47.2448 32.4673C47.1621 32.5014 47.0672 32.4648 47.0307 32.3845C46.9942 32.3042 47.0307 32.2117 47.1159 32.1776Z" fill="#FF58E2"/>
<path d="M47.2572 32.5403C47.2961 32.2141 47.5906 31.9829 47.9167 32.0194C48.2428 32.0584 48.474 32.3529 48.4375 32.679C48.3985 33.0052 48.1041 33.2364 47.778 33.1999C47.4519 33.161 47.2207 32.8665 47.2572 32.5403Z" fill="#FF58E2"/>
<path d="M51.601 30.8706C51.421 30.7951 51.3333 30.5882 51.4015 30.4081C51.4721 30.2256 51.6716 30.1404 51.8517 30.2134C52.0318 30.2888 52.1194 30.4957 52.0512 30.6759C51.9807 30.8584 51.7811 30.9436 51.601 30.8706Z" fill="#FF58E2"/>
<path d="M53.0003 31.6422C52.9662 31.7322 53.01 31.8369 53.1001 31.8734C53.1901 31.9099 53.2899 31.8661 53.3264 31.776C53.3629 31.686 53.3167 31.5813 53.2266 31.5448C53.1366 31.5083 53.0368 31.5521 53.0003 31.6422Z" fill="#FF58E2"/>
<path d="M50.5036 33.251C50.4087 33.2924 50.2967 33.251 50.2578 33.1561C50.2189 33.0612 50.2627 32.9541 50.36 32.9127C50.4574 32.8713 50.5669 32.9127 50.6058 33.0076C50.6447 33.1026 50.6009 33.2097 50.506 33.251H50.5036Z" fill="#FF58E2"/>
<path d="M51.321 33.0003C51.3405 33.0466 51.3965 33.0685 51.4451 33.0466C51.4938 33.0247 51.5157 32.9711 51.4963 32.9249C51.4768 32.8786 51.4208 32.8567 51.3721 32.8786C51.3235 32.9005 51.3016 32.9541 51.321 33.0003Z" fill="#FF58E2"/>
<path d="M47.8997 33.9447C47.9216 33.8936 47.9775 33.8693 48.0286 33.8887C48.0797 33.9082 48.1041 33.9642 48.0822 34.0153C48.0603 34.0664 48.0043 34.0908 47.9532 34.0713C47.9021 34.0518 47.8778 33.9958 47.8997 33.9447Z" fill="#FF58E2"/>
<path d="M50.7709 32.808C50.7368 32.8518 50.676 32.8616 50.6322 32.8299C50.5884 32.7983 50.5811 32.7374 50.6127 32.6936C50.6468 32.6498 50.7076 32.6401 50.7514 32.6717C50.7952 32.7034 50.8025 32.7642 50.7709 32.808Z" fill="#FF58E2"/>
<path d="M51.08 32.4818C51.1019 32.4988 51.1335 32.4939 51.1505 32.472C51.1675 32.4502 51.1626 32.421 51.1408 32.404C51.1189 32.3894 51.0873 32.3918 51.0703 32.4137C51.0533 32.4356 51.0581 32.4647 51.08 32.4818Z" fill="#FF58E2"/>
<path d="M54.8667 29.2568C54.8204 29.3493 54.7085 29.3883 54.6184 29.3444C54.5284 29.2982 54.4919 29.1862 54.5381 29.0937C54.5844 28.9988 54.6963 28.9599 54.7864 29.0061C54.8764 29.0524 54.9129 29.1643 54.8667 29.2568Z" fill="#FF58E2"/>
<path d="M52.5719 30.1282C52.6182 30.1501 52.6741 30.1306 52.696 30.0844C52.7204 30.0381 52.7009 29.9822 52.6547 29.9578C52.6084 29.9359 52.5525 29.9554 52.5306 30.0016C52.5062 30.0479 52.5257 30.1039 52.5719 30.1282Z" fill="#FF58E2"/>
<path d="M51.5401 32.3066C51.4866 32.3115 51.4379 32.2701 51.4306 32.2166C51.4257 32.163 51.4647 32.1143 51.5182 32.1095C51.5717 32.1046 51.6204 32.146 51.6277 32.1995C51.6326 32.2531 51.5936 32.3017 51.5401 32.3042V32.3066Z" fill="#FF58E2"/>
<path d="M51.988 32.3187C51.9904 32.3455 52.0147 32.3649 52.0415 32.3625C52.0682 32.3625 52.0876 32.3357 52.0852 32.309C52.0828 32.2823 52.0585 32.2628 52.0317 32.2653C52.005 32.2653 51.9856 32.292 51.988 32.3187Z" fill="#FF58E2"/>
<path d="M52.0293 30.34C52.0317 30.3935 51.9903 30.4422 51.9368 30.447C51.8832 30.4519 51.837 30.4105 51.8346 30.3546C51.8321 30.301 51.8735 30.2523 51.9271 30.2475C51.9806 30.2426 52.0268 30.284 52.0293 30.34Z" fill="#FF58E2"/>
<path d="M52.0537 29.8895C52.0804 29.8895 52.1023 29.8628 52.0998 29.836C52.0998 29.8093 52.0755 29.7874 52.0488 29.7899C52.0221 29.7899 52.0002 29.8166 52.0026 29.8433C52.0026 29.8701 52.0269 29.892 52.0537 29.8895Z" fill="#FF58E2"/>
<path d="M64.6911 30.4641C64.5645 30.6126 64.3406 30.6345 64.1898 30.5128C64.0389 30.3911 64.017 30.172 64.1435 30.0235C64.2701 29.8751 64.494 29.8531 64.6448 29.9748C64.7957 30.0965 64.8176 30.3156 64.6911 30.4641Z" fill="#FF58E2"/>
<path d="M65.2751 24.8415C65.5258 24.5786 65.5112 24.1576 65.2411 23.8996C64.9709 23.6415 64.5499 23.644 64.2968 23.9069C64.0462 24.1697 64.0608 24.5908 64.3309 24.8488C64.601 25.1068 65.022 25.1044 65.2751 24.8415Z" fill="#FF58E2"/>
<path d="M61.6588 20.8473C61.6418 20.6672 61.4763 20.5333 61.2914 20.5528C61.1064 20.5723 60.9677 20.7329 60.9872 20.913C61.0066 21.0931 61.1697 21.227 61.3546 21.2075C61.5396 21.1881 61.6783 21.0299 61.6588 20.8473Z" fill="#FF58E2"/>
<path d="M65.852 29.3664C65.9274 29.4272 66.0394 29.4175 66.1027 29.342C66.1659 29.2666 66.1562 29.1595 66.0783 29.0986C66.0004 29.0378 65.8909 29.0475 65.8277 29.1229C65.7644 29.1984 65.7741 29.3055 65.852 29.3664Z" fill="#FF58E2"/>
<path d="M63.4112 23.6367C63.601 23.6853 63.7178 23.8776 63.674 24.0651C63.6302 24.2525 63.4404 24.3669 63.253 24.3158C63.0632 24.2671 62.9463 24.0748 62.9902 23.8874C63.034 23.7 63.2238 23.5856 63.4112 23.6342V23.6367Z" fill="#FF58E2"/>
<path d="M61.9118 22.8699C61.8558 22.7921 61.7439 22.775 61.6636 22.831C61.5833 22.887 61.5638 22.9941 61.6222 23.072C61.6782 23.1499 61.7901 23.1669 61.8704 23.1109C61.9507 23.0549 61.9702 22.9478 61.9118 22.8675V22.8699Z" fill="#FF58E2"/>
<path d="M182.582 69.4448C182.582 69.9778 182.399 70.4086 181.893 70.4086C181.387 70.4086 180.976 69.9778 180.976 69.4448C180.976 68.9117 181.387 68.4809 181.893 68.4809C182.399 68.4809 182.582 68.9117 182.582 69.4448Z" fill="white"/>
<path d="M158.794 77.6425C158.794 78.4409 158.541 79.0883 157.83 79.0883C157.12 79.0883 156.545 78.4409 156.545 77.6425C156.545 76.8442 157.122 76.1967 157.83 76.1967C158.538 76.1967 158.794 76.8442 158.794 77.6425Z" fill="#46FFFF"/>
<path d="M145.499 12.1457C145.974 12.3891 146.273 12.7469 146.042 13.1997C145.811 13.6499 145.239 13.8203 144.764 13.5769C144.29 13.3335 144.095 12.7713 144.326 12.3185C144.557 11.8682 145.025 11.9023 145.499 12.1457Z" fill="white"/>
<path d="M179.693 64.3966C179.452 63.7468 175.743 47.6141 174.067 39.319C173.741 37.7028 173.904 37.7394 175.507 37.9365C177.111 38.1361 182.419 38.5791 184.193 38.8347C185.784 39.0635 185.478 38.5158 186.12 40.4168C186.556 41.7092 190.174 56.0626 192.126 64.2117C192.52 65.8595 192.713 65.5212 193.516 66.1637C194.319 66.8063 194.168 67.2761 192.713 67.1276C190.627 66.9158 183.711 65.8692 181.623 65.6818C180.022 65.5382 179.997 65.2072 179.695 64.3966H179.693Z" fill="white"/>
<path d="M54.6187 36.4518C53.9958 36.5126 54.0858 37.4813 54.7112 37.4205C55.3366 37.3596 55.2442 36.3909 54.6187 36.4518Z" fill="#FF58E2"/>
<path d="M53.5503 34.9548C53.5187 34.8745 53.47 34.8088 53.4043 34.7528C53.3702 34.7309 53.3337 34.709 53.2996 34.6871C53.2193 34.6506 53.1366 34.636 53.049 34.6433L53.0028 34.6481C52.9346 34.653 52.8738 34.6725 52.8202 34.709C52.7618 34.7333 52.7132 34.7723 52.6742 34.8234C52.6304 34.8721 52.6037 34.9281 52.589 34.9889C52.5647 35.0498 52.5574 35.113 52.5647 35.1788C52.5744 35.2201 52.5842 35.2639 52.5939 35.3053C52.6255 35.3856 52.6742 35.4514 52.7399 35.5073C52.774 35.5293 52.8105 35.5512 52.8446 35.5731C52.9249 35.6096 53.0076 35.6242 53.0952 35.6169L53.1415 35.612C53.2096 35.6071 53.2704 35.5877 53.324 35.5536C53.3824 35.5293 53.4311 35.4903 53.47 35.4392C53.5138 35.3905 53.5406 35.3345 53.5552 35.2737C53.5795 35.2128 53.5868 35.1495 53.5795 35.0838C53.5698 35.0425 53.56 34.9986 53.5503 34.9573V34.9548Z" fill="#FF58E2"/>
<path d="M56.7091 36.4518C56.0861 36.5126 56.1761 37.4813 56.8016 37.4205C57.4245 37.3596 57.3345 36.3909 56.7091 36.4518Z" fill="#FF58E2"/>
<path d="M47.3326 35.5463C46.7096 35.6071 46.7997 36.5759 47.4251 36.515C48.0481 36.4542 47.958 35.4854 47.3326 35.5463Z" fill="#FF58E2"/>
<path d="M54.7721 35.1325C54.1491 35.1934 54.2391 36.1621 54.8645 36.1012C55.4875 36.0404 55.3975 35.0717 54.7721 35.1325Z" fill="#FF58E2"/>
<path d="M57.1715 37.2647C57.1398 37.1844 57.0912 37.1187 57.0255 37.0627C57.0206 37.0578 57.0133 37.0554 57.0084 37.0505C57.0449 36.9702 57.0595 36.8874 57.0522 36.7998C57.0425 36.7584 57.0328 36.7146 57.023 36.6732C56.9914 36.5929 56.9427 36.5272 56.877 36.4712L56.8259 36.4298C56.7773 36.386 56.7213 36.3592 56.6604 36.3446C56.5996 36.3203 56.5363 36.313 56.4706 36.3203C56.4025 36.3252 56.3416 36.3446 56.2881 36.3811C56.2297 36.4055 56.181 36.4444 56.1421 36.4955C56.1202 36.5296 56.0983 36.5661 56.0764 36.6002C56.0399 36.6805 56.0253 36.7633 56.0326 36.8509C56.0423 36.8923 56.0521 36.9361 56.0618 36.9775C56.0934 37.0578 56.1421 37.1235 56.2078 37.1795L56.2443 37.2087C56.2297 37.2355 56.22 37.2647 56.2127 37.2963C56.1883 37.3572 56.181 37.4205 56.1883 37.4862L56.2175 37.6128C56.2492 37.6931 56.2978 37.7588 56.3635 37.8148C56.3976 37.8367 56.4341 37.8586 56.4682 37.8805C56.5485 37.917 56.6312 37.9316 56.7188 37.9243L56.7651 37.9194C56.8332 37.9146 56.8941 37.8951 56.9476 37.861C57.006 37.8367 57.0547 37.7977 57.0936 37.7466C57.1374 37.6979 57.1642 37.642 57.1788 37.5811C57.2031 37.5203 57.2104 37.457 57.2031 37.3913L57.1739 37.2647H57.1715Z" fill="#FF58E2"/>
<path d="M46.7483 35.758C46.5925 35.7727 46.6144 36.0161 46.7726 36.0014C46.9308 35.9868 46.9065 35.7434 46.7483 35.758Z" fill="#FF58E2"/>
<path d="M53.4312 37.6761C53.4312 37.6761 53.4166 37.6809 53.4068 37.6834C53.4214 37.4789 53.2827 37.2598 53.0199 37.2842C52.8739 37.2988 52.7814 37.3767 52.7352 37.4789C52.7254 37.4229 52.6816 37.3742 52.6086 37.3815C52.4529 37.3961 52.4748 37.6395 52.633 37.6249C52.6646 37.6225 52.6889 37.6079 52.706 37.5884C52.6792 37.8002 52.8155 38.0387 53.088 38.0119C53.2073 37.9998 53.2925 37.9438 53.3436 37.8659C53.3655 37.9 53.3995 37.9243 53.4506 37.9195C53.6064 37.9049 53.5845 37.6614 53.4263 37.6761H53.4312Z" fill="#FF58E2"/>
<path d="M53.4895 36.3203C53.3337 36.3349 53.3556 36.5783 53.5138 36.5637C53.672 36.5491 53.6477 36.3057 53.4895 36.3203Z" fill="#FF58E2"/>
<path d="M47.7292 35.8019C47.5735 35.8165 47.5954 36.0599 47.7536 36.0453C47.9118 36.0307 47.8874 35.7873 47.7292 35.8019Z" fill="#FF58E2"/>
<path d="M47.7387 33.4725C47.6511 33.4798 47.6219 33.5601 47.6389 33.6258C47.5075 33.6599 47.5343 33.8766 47.6827 33.8619C47.7703 33.8546 47.7995 33.7743 47.7825 33.7086C47.9139 33.6745 47.8871 33.4579 47.7387 33.4725Z" fill="#FF58E2"/>
<path d="M48.0772 34.7869C48.0699 34.7674 48.0577 34.7504 48.0407 34.7358C48.031 34.7309 48.0237 34.7236 48.0139 34.7187C47.9945 34.709 47.9726 34.7066 47.9507 34.709L47.9044 34.7139C47.8874 34.7139 47.8728 34.7187 47.8582 34.7285C47.8436 34.7358 47.8314 34.7455 47.8217 34.7577C47.8119 34.7699 47.8046 34.7845 47.7998 34.7991C47.7925 34.8137 47.7925 34.8307 47.7949 34.8477C47.7973 34.8575 47.7998 34.8697 47.8022 34.8794C47.8095 34.8989 47.8217 34.9159 47.8387 34.9305C47.8485 34.9354 47.8558 34.9427 47.8655 34.9475C47.885 34.9573 47.9069 34.9597 47.9288 34.9573L47.975 34.9524C47.992 34.9524 48.0066 34.9475 48.0212 34.9378C48.0358 34.9305 48.048 34.9208 48.0577 34.9086C48.0675 34.8964 48.0748 34.8818 48.0796 34.8672C48.0869 34.8526 48.0869 34.8356 48.0845 34.8185C48.0821 34.8088 48.0796 34.7966 48.0772 34.7869Z" fill="#FF58E2"/>
<path d="M50.5206 32.0827C50.0534 32.1265 50.1215 32.8543 50.5912 32.8105C51.0609 32.7667 50.9903 32.0389 50.5206 32.0827Z" fill="#FF58E2"/>
<path d="M46.077 34.249C46.0284 33.8328 45.7193 33.4458 45.179 33.4969C44.0888 33.6015 44.2494 35.298 45.3421 35.1934C45.6122 35.1666 45.8045 35.0449 45.9261 34.877C46.2255 34.8064 46.262 34.4267 46.077 34.249Z" fill="#FF58E2"/>
<path d="M41.3851 37.1089C40.4458 37.1089 40.4433 38.5694 41.3851 38.5694C42.3269 38.5694 42.3269 37.1089 41.3851 37.1089Z" fill="#FF58E2"/>
<path d="M47.4225 39.6841C46.7995 39.745 46.8895 40.7137 47.5149 40.6529C48.1379 40.592 48.0479 39.6233 47.4225 39.6841Z" fill="#FF58E2"/>
<path d="M52.9274 35.9309C52.779 35.741 52.5551 35.5609 52.3069 35.5414C52.1195 35.5268 51.9321 35.5098 51.7447 35.4952C51.4795 35.4733 51.2313 35.5025 51.0074 35.6656C50.8176 35.8019 50.6472 36.0501 50.618 36.2862C50.5864 36.5394 50.6253 36.8169 50.7884 37.0237C50.9368 37.2136 51.1607 37.3937 51.4089 37.4132C51.5963 37.4278 51.7837 37.4448 51.9711 37.4594C52.2363 37.4813 52.4845 37.4521 52.7084 37.2891C52.8982 37.1527 53.0686 36.9045 53.0978 36.6684C53.1294 36.4152 53.0905 36.1378 52.9274 35.9309Z" fill="#FF58E2"/>
<path d="M48.0821 37.5276C47.6149 37.5714 47.683 38.2991 48.1527 38.2553C48.6224 38.2115 48.5518 37.4838 48.0821 37.5276Z" fill="#FF58E2"/>
<path d="M47.2618 33.8327C46.7946 33.8766 46.8627 34.6043 47.3324 34.5605C47.8021 34.5167 47.7315 33.7889 47.2618 33.8327Z" fill="#FF58E2"/>
<path d="M47.0914 32.5452C46.6242 32.589 46.6923 33.3168 47.162 33.2729C47.6317 33.2291 47.5611 32.5014 47.0914 32.5452Z" fill="#FF58E2"/>
<path d="M46.1427 32.3577C45.6754 32.4015 45.7436 33.1293 46.2133 33.0855C46.6829 33.0417 46.6124 32.3139 46.1427 32.3577Z" fill="#FF58E2"/>
<path d="M39.1507 41.8528C39.0899 41.7384 39.0071 41.6484 38.9 41.5802C38.8051 41.495 38.6956 41.4366 38.5691 41.405C38.4401 41.3636 38.3111 41.3587 38.1797 41.3879C38.0507 41.3928 37.9291 41.4317 37.8171 41.5023C37.7465 41.5486 37.6808 41.6045 37.62 41.6654C37.5835 41.6897 37.5446 41.7116 37.5129 41.7408C37.4399 41.7847 37.3815 41.8431 37.3377 41.9161C37.2525 42.011 37.1941 42.1206 37.1625 42.2471C37.1503 42.3323 37.1382 42.4199 37.1284 42.5051C37.1406 42.5903 37.1528 42.6779 37.1625 42.7631C37.1844 42.8581 37.2282 42.9384 37.2817 43.0163C37.3134 43.0844 37.3523 43.1477 37.4034 43.2061C37.4715 43.3132 37.564 43.396 37.676 43.4568C37.9023 43.5761 38.1748 43.6369 38.4255 43.5542C38.6396 43.486 38.8465 43.3546 38.9682 43.1623C39.0315 43.099 39.0996 43.0041 39.1312 42.953C39.1361 42.9457 39.1385 42.9408 39.1434 42.9335C39.1629 42.8921 39.1799 42.8508 39.1969 42.8069C39.2164 42.768 39.2334 42.7266 39.248 42.6852C39.2748 42.5879 39.2894 42.4832 39.2894 42.3834C39.2894 42.1425 39.2383 42.0694 39.1458 41.8528H39.1507Z" fill="#FF58E2"/>
<path d="M56.5554 38.2164C56.4119 38.0363 56.2367 37.9292 56.0103 37.8756C55.9349 37.8586 55.8668 37.8562 55.7889 37.8537C55.711 37.8513 55.6307 37.844 55.5528 37.8562C55.3119 37.8975 55.1562 37.9633 54.9469 38.0825C54.7717 38.1848 54.6402 38.4355 54.6062 38.6277C54.5697 38.8371 54.6208 39.1048 54.7546 39.2728C54.8885 39.4431 55.0783 39.5843 55.2997 39.6135C55.3752 39.616 55.4531 39.6184 55.5285 39.6233C55.6161 39.6135 55.6988 39.5916 55.7767 39.56C55.9738 39.5843 56.2075 39.5162 56.3608 39.4066C56.5262 39.2874 56.6747 39.0683 56.7015 38.8614C56.7307 38.6399 56.6966 38.3965 56.553 38.2164H56.5554Z" fill="#FF58E2"/>
<path d="M52.0198 33.621C51.864 33.6356 51.8859 33.879 52.0441 33.8644C52.2023 33.8498 52.1779 33.6064 52.0198 33.621Z" fill="#FF58E2"/>
<path d="M46.3835 38.1775C46.2278 38.1921 46.2497 38.4355 46.4079 38.4209C46.5661 38.4063 46.5417 38.1629 46.3835 38.1775Z" fill="#FF58E2"/>
<path d="M46.8556 34.7504C46.8483 34.7358 46.8386 34.7236 46.8264 34.7139C46.8142 34.7041 46.7996 34.6968 46.785 34.692C46.7704 34.6847 46.7534 34.6847 46.7364 34.6871C46.7266 34.6895 46.7145 34.692 46.7047 34.6944C46.6853 34.7017 46.6682 34.7139 46.6536 34.7309L46.6366 34.7577C46.6269 34.7772 46.6244 34.7991 46.6269 34.821L46.6317 34.8672C46.6317 34.8843 46.6366 34.8989 46.6463 34.9135C46.6536 34.9281 46.6634 34.9402 46.6755 34.95C46.6877 34.9597 46.7023 34.967 46.7169 34.9719C46.7315 34.9792 46.7485 34.9792 46.7656 34.9767C46.7753 34.9743 46.7875 34.9719 46.7972 34.9694C46.8167 34.9621 46.8337 34.95 46.8483 34.9329L46.8653 34.9062C46.8751 34.8867 46.8775 34.8648 46.8751 34.8429L46.8702 34.7966C46.8702 34.7796 46.8653 34.765 46.8556 34.7504Z" fill="#FF58E2"/>
<path d="M46.3762 33.3241C46.2205 33.3387 46.2424 33.5821 46.4005 33.5675C46.5563 33.5529 46.5344 33.3095 46.3762 33.3241Z" fill="#FF58E2"/>
<path d="M40.8736 34.8429C40.7179 34.8429 40.7179 35.0863 40.8736 35.0863C41.0294 35.0863 41.0294 34.8429 40.8736 34.8429Z" fill="#FF58E2"/>
</g>
<defs>
<radialGradient id="paint0_radial_9_1159" cx="0" cy="0" r="1" gradientUnits="userSpaceOnUse" gradientTransform="translate(165.607 59.3548) rotate(83.2413) scale(15.748 14.6429)">
<stop offset="0.43" stop-color="#45FDFF"/>
<stop offset="1" stop-color="#46FFFF" stop-opacity="0"/>
</radialGradient>
<radialGradient id="paint1_radial_9_1159" cx="0" cy="0" r="1" gradientUnits="userSpaceOnUse" gradientTransform="translate(44.2921 40.2471) rotate(-27.1144) scale(26.809 19.5728)">
<stop offset="0.41" stop-color="#FF58E2"/>
<stop offset="1" stop-color="white" stop-opacity="0"/>
</radialGradient>
<clipPath id="clip0_9_1159">
<rect width="194" height="90" fill="white"/>
</clipPath>
</defs>
</svg>
