<svg width="159" height="150" viewBox="0 0 159 150" fill="none" xmlns="http://www.w3.org/2000/svg">
<path d="M131.167 28.3066L46.5473 4.04228C38.8254 1.82806 30.6221 6.3752 28.4079 14.0971L4.14364 98.7167C1.92588 106.451 6.47656 114.642 14.1985 116.856L98.8181 141.12C106.552 143.338 114.743 138.787 116.957 131.066L141.222 46.4459C143.448 38.7276 138.901 30.5243 131.167 28.3066ZM107.555 128.369C106.797 131.013 104.158 132.476 101.514 131.718L16.8945 107.454C14.2505 106.696 12.7753 104.053 13.5335 101.409L37.7977 16.7896C38.5559 14.1456 41.1949 12.6828 43.8513 13.4445L128.471 37.7087C131.115 38.4669 132.578 41.1059 131.82 43.7499L107.555 128.369Z" fill="#FF58E2"/>
<path d="M83.4716 34.9806L68.6452 86.6864C66.4062 94.4948 58.3019 98.9767 50.5058 96.7412C42.7098 94.5057 38.2155 86.3979 40.451 78.6018C42.6865 70.8058 50.7944 66.3116 58.5904 68.547C60.283 69.0324 61.7089 69.7488 63.0444 70.7334L65.8467 60.9606C64.4209 60.2442 62.8838 59.5895 61.29 59.1325C48.3172 55.4126 34.7723 62.9207 31.0524 75.8935C27.3325 88.8662 34.8406 102.411 47.8133 106.131C60.7861 109.851 74.331 102.343 78.0509 89.3701L86.9184 58.4454C88.0996 60.2014 88.7171 62.4777 90.2783 63.7945C97.0911 69.5989 105.957 71.9272 112.999 73.9465L115.695 64.5444C108.641 62.5215 101.05 60.1308 96.6253 56.3485C92.2011 52.5661 89.8731 48.1413 92.8809 37.6519L83.4787 34.9559L83.4716 34.9806Z" fill="#FF58E2"/>
<path d="M88.2999 84.8217C88.2286 83.6246 89.1282 82.5856 90.3324 82.4896C91.533 82.406 92.5967 83.3127 92.6803 84.5133C92.7639 85.7139 91.8519 86.7494 90.6478 86.8454C89.4472 86.929 88.3835 86.0223 88.2999 84.8217Z" fill="#FF58E2"/>
<path d="M83.4844 96.999C83.453 96.6423 83.7287 96.3336 84.0818 96.3145C84.4349 96.2954 84.7348 96.5553 84.7662 96.9119C84.7977 97.2686 84.522 97.5773 84.1688 97.5964C83.8122 97.6278 83.5158 97.3556 83.4844 96.999Z" fill="#FF58E2"/>
<path d="M106.756 115.211C106.724 114.854 107 114.546 107.353 114.526C107.706 114.507 108.006 114.767 108.038 115.124C108.069 115.48 107.793 115.789 107.44 115.808C107.087 115.827 106.787 115.568 106.756 115.211Z" fill="#FF58E2"/>
<path d="M99.465 114.431C99.4336 114.074 99.7093 113.765 100.05 113.743C100.416 113.727 100.715 113.987 100.747 114.344C100.766 114.697 100.503 115.009 100.149 115.028C99.7963 115.047 99.4841 114.784 99.465 114.431Z" fill="#FF58E2"/>
<path d="M112.825 80.5687C112.781 79.9277 113.258 79.3827 113.899 79.3391C114.54 79.2956 115.085 79.7728 115.141 80.4173C115.185 81.0582 114.695 81.5997 114.067 81.6468C113.426 81.6903 112.868 81.2096 112.825 80.5687Z" fill="#FF58E2"/>
<path d="M80.2682 51.7923C80.2437 51.5045 80.4611 51.2593 80.7454 51.2472C81.0332 51.2228 81.2784 51.4402 81.2904 51.7244C81.3149 52.0122 81.0975 52.2574 80.8132 52.2695C80.5255 52.294 80.2803 52.0766 80.2682 51.7923Z" fill="#FF58E2"/>
<path d="M92.0597 57.6732C92.0352 57.3854 92.2526 57.1402 92.5369 57.1281C92.8247 57.1037 93.0699 57.321 93.0943 57.6088C93.1064 57.8931 92.889 58.1383 92.6047 58.1504C92.317 58.1748 92.0841 57.961 92.0597 57.6732Z" fill="#FF58E2"/>
<path d="M77.0606 68.4813C77.0362 68.1935 77.2536 67.9483 77.5378 67.9362C77.8256 67.9118 78.0708 68.1292 78.0953 68.417C78.1074 68.7012 77.89 68.9464 77.6057 68.9585C77.3215 68.9706 77.0727 68.7655 77.0606 68.4813Z" fill="#FF58E2"/>
<path d="M24.6344 98.3213C24.6223 98.037 24.8397 97.7918 25.1239 97.7797C25.4117 97.7553 25.6446 97.9691 25.669 98.2569C25.6935 98.5447 25.4761 98.7899 25.1918 98.802C24.904 98.8265 24.6588 98.6091 24.6344 98.3213Z" fill="#FF58E2"/>
<path d="M28.6958 93.6697C28.6713 93.3819 28.8887 93.1367 29.1853 93.1282C29.4731 93.1037 29.706 93.3176 29.7304 93.6054C29.7548 93.8932 29.5375 94.1384 29.2532 94.1505C28.9566 94.159 28.7202 93.9575 28.6958 93.6697Z" fill="#FF58E2"/>
<path d="M39.9786 103.189C39.9665 102.905 40.1839 102.66 40.4682 102.648C40.756 102.623 40.9888 102.837 41.0133 103.125C41.0377 103.413 40.8203 103.658 40.5361 103.67C40.2483 103.695 40.0031 103.477 39.9786 103.189Z" fill="#FF58E2"/>
<path d="M73.1837 97.575C73.1593 97.2872 73.3766 97.042 73.6609 97.03C73.9487 97.0055 74.1939 97.2229 74.206 97.5072C74.2304 97.795 74.013 98.0402 73.7288 98.0522C73.441 98.0767 73.1958 97.8593 73.1837 97.575Z" fill="#FF58E2"/>
<path d="M113.032 65.2516C112.993 64.8261 113.327 64.4539 113.749 64.4278C114.159 64.3981 114.535 64.7198 114.573 65.1453C114.612 65.5709 114.278 65.9431 113.856 65.9691C113.446 65.9988 113.058 65.6735 113.032 65.2516Z" fill="#FF58E2"/>
<path d="M69.7071 70.5314C69.6686 70.1058 69.9991 69.746 70.4246 69.7076C70.8342 69.6779 71.2223 70.0031 71.2484 70.4251C71.2869 70.8506 70.9528 71.2228 70.5432 71.2525C70.1212 71.2785 69.7455 70.9569 69.7071 70.5314Z" fill="#FF58E2"/>
<path d="M90.0395 76.4687C90.0205 76.1156 90.2838 75.8034 90.6369 75.7843C90.99 75.7652 91.3023 76.0286 91.3214 76.3817C91.3528 76.7383 91.0771 77.047 90.7363 77.0697C90.3673 77.0976 90.071 76.8254 90.0395 76.4687Z" fill="#FF58E2"/>
<path d="M124.255 57.7733C124.184 56.5762 125.083 55.5372 126.287 55.4413C127.5 55.3612 128.552 56.2644 128.635 57.465C128.719 58.6656 127.807 59.7011 126.603 59.797C125.402 59.8806 124.339 58.9739 124.255 57.7733Z" fill="#FF58E2"/>
<path d="M119.443 69.9379C119.412 69.5813 119.688 69.2726 120.041 69.2535C120.394 69.2344 120.694 69.4942 120.725 69.8509C120.757 70.2075 120.481 70.5162 120.128 70.5353C119.775 70.5544 119.475 70.2946 119.443 69.9379Z" fill="#FF58E2"/>
<path d="M142.761 67.0503C142.742 66.6972 143.005 66.3849 143.359 66.3658C143.712 66.3468 144.024 66.6101 144.043 66.9632C144.074 67.3199 143.799 67.6286 143.458 67.6512C143.093 67.6668 142.793 67.4069 142.761 67.0503Z" fill="#FF58E2"/>
<path d="M142.71 88.1625C142.679 87.8059 142.955 87.4972 143.308 87.4781C143.661 87.459 143.961 87.7188 143.992 88.0755C144.024 88.4321 143.748 88.7408 143.407 88.7635C143.042 88.779 142.742 88.5192 142.71 88.1625Z" fill="#FF58E2"/>
<path d="M135.424 87.3701C135.393 87.0135 135.668 86.7048 136.009 86.6822C136.378 86.6543 136.674 86.9264 136.706 87.2831C136.725 87.6362 136.462 87.9485 136.108 87.9675C135.752 87.999 135.443 87.7233 135.424 87.3701Z" fill="#FF58E2"/>
<path d="M148.78 53.5203C148.736 52.8794 149.214 52.3343 149.854 52.2908C150.495 52.2473 151.04 52.7245 151.096 53.3689C151.14 54.0098 150.65 54.5514 150.022 54.5984C149.381 54.642 148.823 54.1612 148.78 53.5203Z" fill="#FF58E2"/>
<path d="M134.513 34.6816C134.482 34.325 134.758 34.0163 135.098 33.9936C135.464 33.9781 135.764 34.2379 135.795 34.5946C135.814 34.9477 135.551 35.2599 135.198 35.279C134.845 35.2981 134.532 35.0347 134.513 34.6816Z" fill="#FF58E2"/>
<path d="M116.236 24.7474C116.211 24.4596 116.429 24.2144 116.713 24.2023C117.001 24.1779 117.246 24.3953 117.271 24.6831C117.283 24.9673 117.065 25.2125 116.781 25.2246C116.493 25.249 116.248 25.0317 116.236 24.7474Z" fill="#FF58E2"/>
<path d="M128.027 30.6287C128.003 30.3409 128.22 30.0958 128.505 30.0837C128.805 30.0628 129.038 30.2766 129.062 30.5644C129.074 30.8487 128.857 31.0939 128.573 31.1059C128.285 31.1304 128.052 30.9165 128.027 30.6287Z" fill="#FF58E2"/>
<path d="M113.028 41.4369C113.003 41.1491 113.221 40.9039 113.505 40.8918C113.793 40.8673 114.038 41.0847 114.063 41.3725C114.075 41.6568 113.857 41.902 113.573 41.9141C113.285 41.9385 113.052 41.7247 113.028 41.4369Z" fill="#FF58E2"/>
<path d="M60.5895 71.2729C60.5774 70.9887 60.7948 70.7435 61.079 70.7314C61.3668 70.7069 61.5997 70.9208 61.6241 71.2086C61.6485 71.4964 61.4312 71.7416 61.1469 71.7537C60.8591 71.7781 60.6139 71.5607 60.5895 71.2729Z" fill="#FF58E2"/>
<path d="M64.6631 66.6248C64.6386 66.337 64.856 66.0918 65.1526 66.0833C65.4404 66.0588 65.6732 66.2727 65.6977 66.5605C65.7221 66.8483 65.5047 67.0935 65.2205 67.1055C64.9203 67.1264 64.6875 66.9126 64.6631 66.6248Z" fill="#FF58E2"/>
<path d="M75.9342 76.1416C75.9221 75.8573 76.1395 75.6121 76.4238 75.6C76.7115 75.5756 76.9444 75.7894 76.9688 76.0772C76.9933 76.365 76.7759 76.6102 76.4916 76.6223C76.2038 76.6468 75.9586 76.4294 75.9342 76.1416Z" fill="#FF58E2"/>
<path d="M148.99 38.191C148.952 37.7655 149.286 37.3933 149.708 37.3672C150.117 37.3376 150.506 37.6628 150.532 38.0848C150.57 38.5103 150.24 38.8702 149.814 38.9086C149.404 38.9382 149.016 38.613 148.99 38.191Z" fill="#FF58E2"/>
<path d="M105.674 43.4864C105.636 43.0609 105.97 42.6887 106.392 42.6626C106.814 42.6366 107.19 42.9582 107.216 43.3802C107.254 43.8057 106.92 44.1779 106.51 44.2076C106.089 44.2336 105.713 43.912 105.674 43.4864Z" fill="#FF58E2"/>
<path d="M125.995 49.4204C125.976 49.0673 126.239 48.755 126.592 48.736C126.946 48.7169 127.258 48.9802 127.277 49.3333C127.308 49.69 127.033 49.9987 126.692 50.0213C126.326 50.0369 126.027 49.7771 125.995 49.4204Z" fill="#FF58E2"/>
</svg>
