<svg width="88" height="88" viewBox="0 0 88 88" fill="none" xmlns="http://www.w3.org/2000/svg">
<g clip-path="url(#clip0_63_4520)">
<path d="M47.441 15.2162V57.0662C47.441 63.3862 42.341 68.4762 36.031 68.4762C29.721 68.4762 24.621 63.3762 24.621 57.0662C24.621 50.7562 29.721 45.6562 36.031 45.6562C37.401 45.6562 38.621 45.8862 39.831 46.3362V38.4262C38.611 38.1962 37.321 38.0362 36.031 38.0362C25.521 38.0462 17.001 46.5662 17.001 57.0662C17.001 67.5662 25.521 76.0862 36.021 76.0862C46.521 76.0862 55.041 67.5662 55.041 57.0662V32.0362C56.301 33.0962 57.251 34.6662 58.701 35.3162C65.041 38.1962 72.171 38.0362 77.871 38.0362V30.4262C72.161 30.4262 65.971 30.2662 61.851 28.3862C57.731 26.5062 55.041 23.6962 55.041 15.2062H47.431L47.441 15.2162Z" fill="#B5FF00"/>
<path d="M61.741 51.4562C61.431 50.5762 61.881 49.6062 62.761 49.2762C63.641 48.9562 64.631 49.4062 64.951 50.2862C65.271 51.1662 64.811 52.1362 63.931 52.4662C63.051 52.7862 62.061 52.3362 61.741 51.4562Z" fill="#B5FF00"/>
<path d="M60.751 61.5962C60.651 61.3362 60.791 61.0462 61.051 60.9562C61.311 60.8662 61.591 60.9962 61.691 61.2562C61.791 61.5162 61.651 61.8062 61.391 61.8962C61.131 61.9962 60.851 61.8562 60.751 61.5962Z" fill="#B5FF00"/>
<path d="M82.061 70.2262C81.961 69.9662 82.101 69.6762 82.361 69.5862C82.621 69.4962 82.901 69.6262 83.001 69.8862C83.101 70.1462 82.961 70.4362 82.701 70.5262C82.441 70.6162 82.161 70.4862 82.061 70.2262Z" fill="#B5FF00"/>
<path d="M76.441 71.2062C76.341 70.9462 76.481 70.6562 76.731 70.5662C77.001 70.4762 77.281 70.6062 77.381 70.8662C77.471 71.1262 77.341 71.4162 77.081 71.5062C76.821 71.5962 76.531 71.4662 76.441 71.2062Z" fill="#B5FF00"/>
<path d="M79.171 43.0162C79.001 42.5462 79.241 42.0362 79.711 41.8662C80.181 41.6962 80.691 41.9362 80.871 42.4062C81.041 42.8762 80.791 43.3862 80.331 43.5562C79.861 43.7262 79.341 43.4862 79.171 43.0162Z" fill="#B5FF00"/>
<path d="M48.651 28.4762C48.571 28.2662 48.681 28.0362 48.891 27.9662C49.101 27.8862 49.3311 27.9962 49.4011 28.2062C49.4811 28.4162 49.371 28.6462 49.161 28.7162C48.951 28.7962 48.721 28.6862 48.651 28.4762Z" fill="#B5FF00"/>
<path d="M58.731 30.3462C58.651 30.1362 58.761 29.9062 58.971 29.8362C59.181 29.7562 59.411 29.8662 59.491 30.0762C59.561 30.2862 59.451 30.5162 59.241 30.5862C59.031 30.6662 58.811 30.5562 58.731 30.3462Z" fill="#B5FF00"/>
<path d="M49.831 41.6462C49.751 41.4362 49.861 41.2062 50.071 41.1362C50.281 41.0562 50.511 41.1662 50.591 41.3762C50.661 41.5862 50.551 41.8162 50.341 41.8862C50.131 41.9562 49.901 41.8562 49.831 41.6462Z" fill="#B5FF00"/>
<path d="M17.021 75.2062C16.951 74.9962 17.061 74.7662 17.271 74.6962C17.481 74.6162 17.701 74.7262 17.781 74.9362C17.861 75.1462 17.751 75.3762 17.541 75.4462C17.331 75.5262 17.101 75.4162 17.021 75.2062Z" fill="#B5FF00"/>
<path d="M19.061 70.8562C18.981 70.6462 19.091 70.4162 19.311 70.3462C19.521 70.2662 19.741 70.3762 19.821 70.5862C19.901 70.7962 19.791 71.0262 19.581 71.0962C19.361 71.1662 19.141 71.0662 19.061 70.8562Z" fill="#B5FF00"/>
<path d="M29.541 75.5562C29.471 75.3462 29.581 75.1162 29.791 75.0462C30.001 74.9662 30.221 75.0762 30.301 75.2862C30.381 75.4962 30.271 75.7262 30.061 75.7962C29.851 75.8762 29.621 75.7662 29.541 75.5562Z" fill="#B5FF00"/>
<path d="M53.171 64.2362C53.091 64.0262 53.201 63.7962 53.411 63.7262C53.621 63.6462 53.851 63.7562 53.921 63.9662C54.001 64.1762 53.891 64.4062 53.681 64.4762C53.471 64.5562 53.241 64.4462 53.171 64.2362Z" fill="#B5FF00"/>
<path d="M76.041 31.5162C75.921 31.2062 76.091 30.8562 76.401 30.7462C76.701 30.6362 77.051 30.7962 77.171 31.1062C77.291 31.4162 77.121 31.7662 76.811 31.8762C76.511 31.9862 76.151 31.8262 76.041 31.5162Z" fill="#B5FF00"/>
<path d="M44.771 44.7562C44.651 44.4462 44.821 44.1062 45.131 43.9862C45.431 43.8762 45.791 44.0362 45.901 44.3462C46.021 44.6562 45.851 45.0062 45.551 45.1162C45.241 45.2262 44.891 45.0662 44.771 44.7562Z" fill="#B5FF00"/>
<path d="M61.251 44.8362C61.161 44.5762 61.291 44.2862 61.551 44.1962C61.811 44.1062 62.101 44.2362 62.191 44.4962C62.291 44.7562 62.151 45.0462 61.901 45.1362C61.631 45.2362 61.351 45.0962 61.251 44.8362Z" fill="#B5FF00"/>
<path d="M82.831 23.5162C82.521 22.6362 82.971 21.6662 83.851 21.3362C84.741 21.0162 85.721 21.4662 86.041 22.3462C86.361 23.2262 85.901 24.1962 85.021 24.5262C84.141 24.8462 83.151 24.3962 82.831 23.5162Z" fill="#B5FF00"/>
<path d="M81.841 33.6462C81.741 33.3862 81.881 33.0962 82.141 33.0062C82.401 32.9162 82.681 33.0462 82.781 33.3062C82.881 33.5662 82.7411 33.8562 82.481 33.9462C82.221 34.0362 81.941 33.9062 81.841 33.6462Z" fill="#B5FF00"/>
<path d="M98.661 26.4862C98.5711 26.2262 98.701 25.9362 98.961 25.8462C99.221 25.7562 99.511 25.8862 99.601 26.1462C99.701 26.4062 99.561 26.6962 99.311 26.7862C99.041 26.8762 98.761 26.7462 98.661 26.4862Z" fill="#B5FF00"/>
<path d="M103.151 42.2862C103.051 42.0262 103.191 41.7362 103.451 41.6462C103.711 41.5562 103.991 41.6862 104.091 41.9462C104.191 42.2062 104.051 42.4962 103.801 42.5862C103.531 42.6762 103.251 42.5462 103.151 42.2862Z" fill="#B5FF00"/>
<path d="M97.531 43.2562C97.431 42.9962 97.571 42.7062 97.821 42.6162C98.091 42.5162 98.371 42.6562 98.471 42.9162C98.561 43.1762 98.431 43.4662 98.171 43.5562C97.911 43.6562 97.621 43.5162 97.531 43.2562Z" fill="#B5FF00"/>
<path d="M100.261 15.0762C100.091 14.6062 100.331 14.0962 100.801 13.9262C101.271 13.7562 101.781 13.9962 101.961 14.4662C102.131 14.9362 101.881 15.4462 101.421 15.6162C100.951 15.7862 100.431 15.5462 100.261 15.0762Z" fill="#B5FF00"/>
<path d="M85.561 4.04617C85.461 3.78617 85.601 3.49617 85.851 3.40617C86.121 3.31617 86.401 3.44617 86.501 3.70617C86.591 3.96617 86.461 4.25617 86.201 4.34617C85.941 4.43617 85.651 4.30617 85.561 4.04617Z" fill="#B5FF00"/>
<path d="M69.751 0.536173C69.671 0.326173 69.781 0.0961728 69.991 0.0261728C70.201 -0.0538272 70.431 0.0561729 70.511 0.266173C70.581 0.476173 70.471 0.706173 70.261 0.776173C70.051 0.856173 69.821 0.746173 69.751 0.536173Z" fill="#B5FF00"/>
<path d="M79.831 2.40617C79.751 2.19617 79.861 1.96617 80.071 1.89617C80.291 1.81617 80.511 1.92617 80.591 2.13617C80.661 2.34617 80.551 2.57617 80.341 2.64617C80.131 2.72617 79.911 2.61617 79.831 2.40617Z" fill="#B5FF00"/>
<path d="M70.931 13.7062C70.851 13.4962 70.961 13.2662 71.171 13.1962C71.381 13.1162 71.611 13.2262 71.691 13.4362C71.761 13.6462 71.651 13.8762 71.441 13.9462C71.231 14.0262 71.011 13.9162 70.931 13.7062Z" fill="#B5FF00"/>
<path d="M38.111 47.2662C38.041 47.0562 38.151 46.8262 38.361 46.7562C38.571 46.6762 38.791 46.7862 38.871 46.9962C38.951 47.2062 38.841 47.4362 38.631 47.5062C38.421 47.5862 38.191 47.4762 38.111 47.2662Z" fill="#B5FF00"/>
<path d="M40.161 42.9162C40.081 42.7062 40.191 42.4762 40.411 42.4062C40.621 42.3262 40.841 42.4362 40.921 42.6462C41.001 42.8562 40.891 43.0862 40.681 43.1562C40.461 43.2362 40.241 43.1262 40.161 42.9162Z" fill="#B5FF00"/>
<path d="M50.631 47.6162C50.561 47.4062 50.671 47.1762 50.881 47.1062C51.091 47.0262 51.311 47.1362 51.391 47.3462C51.471 47.5562 51.361 47.7862 51.151 47.8562C50.941 47.9362 50.711 47.8262 50.631 47.6162Z" fill="#B5FF00"/>
<path d="M97.131 3.56617C97.011 3.25617 97.181 2.90617 97.491 2.79617C97.791 2.68617 98.151 2.84617 98.261 3.15617C98.3811 3.46617 98.211 3.80617 97.901 3.92617C97.601 4.03617 97.241 3.87617 97.131 3.56617Z" fill="#B5FF00"/>
<path d="M65.871 16.8162C65.751 16.5062 65.921 16.1562 66.231 16.0462C66.541 15.9362 66.891 16.0962 67.001 16.4062C67.121 16.7162 66.951 17.0662 66.651 17.1762C66.341 17.2862 65.991 17.1262 65.871 16.8162Z" fill="#B5FF00"/>
<path d="M82.341 16.8962C82.251 16.6362 82.381 16.3462 82.641 16.2562C82.901 16.1662 83.191 16.2962 83.281 16.5562C83.381 16.8162 83.241 17.1062 82.991 17.1962C82.721 17.2862 82.441 17.1562 82.341 16.8962Z" fill="#B5FF00"/>
</g>
<defs>
<clipPath id="clip0_63_4520">
<rect width="88" height="88" fill="white"/>
</clipPath>
</defs>
</svg>
