<svg width="88" height="88" viewBox="0 0 88 88" fill="none" xmlns="http://www.w3.org/2000/svg">
<g clip-path="url(#clip0_63_4519)">
<path d="M74.84 25.0186C72.49 26.0186 69.97 26.6986 67.31 27.0286C70.02 25.4386 72.1 22.9286 73.07 19.9486C70.54 21.4286 67.73 22.4886 64.75 23.0486C62.36 20.5686 58.96 19.0086 55.2 19.0086C47.97 19.0086 42.1 24.7386 42.1 31.8186C42.1 32.8186 42.22 33.7986 42.44 34.7386C31.56 34.1786 21.91 29.0986 15.45 21.3686C14.32 23.2586 13.68 25.4386 13.68 27.7986C13.68 32.2286 15.99 36.1486 19.51 38.4586C17.36 38.3686 15.34 37.8086 13.57 36.8386V37.0186C13.57 43.2186 18.09 48.3786 24.07 49.5586C22.97 49.8586 21.81 49.9986 20.62 49.9986C19.77 49.9986 18.95 49.9086 18.15 49.7586C19.82 54.8386 24.66 58.5586 30.38 58.6386C25.9 62.0886 20.26 64.1286 14.12 64.1286C13.06 64.1286 12.02 64.0686 11 63.9486C16.79 67.5786 23.67 69.6786 31.07 69.6786C55.16 69.6786 68.33 50.1986 68.33 33.2886C68.33 32.7286 68.32 32.1686 68.3 31.6386C70.86 29.8386 73.07 27.5686 74.83 25.0286L74.84 25.0186Z" fill="#B5FF00"/>
<path d="M48.23 79.4186C47.86 78.3886 48.39 77.2386 49.43 76.8586C50.47 76.4786 51.62 77.0186 52 78.0486C52.38 79.0786 51.84 80.2286 50.8 80.6086C49.76 80.9886 48.61 80.4486 48.23 79.4186Z" fill="#B5FF00"/>
<path d="M47.07 91.3186C46.95 91.0186 47.12 90.6786 47.43 90.5686C47.73 90.4586 48.06 90.6086 48.18 90.9186C48.3 91.2186 48.13 91.5586 47.82 91.6686C47.52 91.7786 47.19 91.6286 47.07 91.3186Z" fill="#B5FF00"/>
<path d="M72.09 101.459C71.97 101.159 72.14 100.819 72.45 100.709C72.75 100.599 73.08 100.759 73.2 101.059C73.32 101.359 73.15 101.699 72.84 101.809C72.54 101.919 72.21 101.759 72.09 101.459Z" fill="#B5FF00"/>
<path d="M65.49 102.609C65.37 102.309 65.54 101.969 65.84 101.859C66.15 101.749 66.49 101.909 66.6 102.209C66.7 102.509 66.55 102.849 66.24 102.959C65.94 103.069 65.59 102.909 65.49 102.609Z" fill="#B5FF00"/>
<path d="M68.7 69.5186C68.5 68.9686 68.78 68.3686 69.33 68.1686C69.88 67.9686 70.48 68.2486 70.69 68.7986C70.89 69.3486 70.6 69.9486 70.06 70.1486C69.51 70.3486 68.89 70.0686 68.7 69.5186Z" fill="#B5FF00"/>
<path d="M32.87 52.4386C32.78 52.1986 32.9 51.9286 33.15 51.8386C33.39 51.7486 33.67 51.8786 33.75 52.1186C33.84 52.3586 33.72 52.6286 33.47 52.7186C33.23 52.8086 32.95 52.6786 32.87 52.4386Z" fill="#B5FF00"/>
<path d="M44.7 54.6386C44.61 54.3986 44.73 54.1286 44.98 54.0386C45.22 53.9486 45.5 54.0786 45.59 54.3186C45.67 54.5586 45.54 54.8286 45.3 54.9186C45.06 55.0086 44.79 54.8786 44.7 54.6386Z" fill="#B5FF00"/>
<path d="M34.25 67.9086C34.16 67.6686 34.28 67.3986 34.53 67.3086C34.77 67.2186 35.05 67.3486 35.14 67.5886C35.22 67.8286 35.09 68.0986 34.85 68.1886C34.61 68.2786 34.33 68.1486 34.25 67.9086Z" fill="#B5FF00"/>
<path d="M38.18 94.4186C38.09 94.1786 38.21 93.9086 38.46 93.8186C38.7 93.7286 38.98 93.8586 39.06 94.0986C39.15 94.3386 39.03 94.6086 38.78 94.6986C38.54 94.7886 38.26 94.6586 38.18 94.4186Z" fill="#B5FF00"/>
<path d="M65.02 56.0086C64.88 55.6386 65.08 55.2386 65.45 55.1086C65.81 54.9786 66.21 55.1686 66.35 55.5286C66.49 55.8986 66.29 56.2986 65.92 56.4286C65.56 56.5586 65.15 56.3686 65.02 56.0086Z" fill="#B5FF00"/>
<path d="M28.31 71.5586C28.17 71.1886 28.37 70.7886 28.74 70.6586C29.1 70.5286 29.51 70.7186 29.64 71.0786C29.78 71.4486 29.58 71.8486 29.22 71.9786C28.85 72.1086 28.45 71.9186 28.31 71.5586Z" fill="#B5FF00"/>
<path d="M47.66 71.6486C47.56 71.3486 47.71 71.0086 48.02 70.8986C48.32 70.7886 48.67 70.9386 48.77 71.2486C48.89 71.5486 48.72 71.8886 48.42 71.9986C48.11 72.1086 47.77 71.9586 47.66 71.6486Z" fill="#B5FF00"/>
<path d="M73 46.6086C72.63 45.5786 73.16 44.4286 74.2 44.0486C75.25 43.6686 76.39 44.2086 76.77 45.2386C77.15 46.2686 76.61 47.4186 75.57 47.7986C74.53 48.1786 73.38 47.6386 73 46.6086Z" fill="#B5FF00"/>
<path d="M71.83 58.5086C71.71 58.2086 71.88 57.8686 72.19 57.7586C72.49 57.6486 72.82 57.8086 72.94 58.1086C73.06 58.4086 72.89 58.7486 72.58 58.8586C72.28 58.9686 71.95 58.8186 71.83 58.5086Z" fill="#B5FF00"/>
<path d="M91.58 50.1086C91.48 49.8086 91.63 49.4686 91.94 49.3586C92.24 49.2486 92.59 49.4086 92.69 49.7086C92.81 50.0086 92.64 50.3486 92.34 50.4586C92.03 50.5686 91.69 50.4186 91.58 50.1086Z" fill="#B5FF00"/>
<path d="M96.85 68.6486C96.73 68.3486 96.9 68.0086 97.21 67.8986C97.51 67.7886 97.84 67.9486 97.96 68.2486C98.08 68.5486 97.91 68.8886 97.61 68.9986C97.3 69.1086 96.96 68.9486 96.85 68.6486Z" fill="#B5FF00"/>
<path d="M90.26 69.7986C90.14 69.4986 90.31 69.1586 90.61 69.0486C90.92 68.9386 91.26 69.0886 91.37 69.3986C91.47 69.6986 91.32 70.0386 91.01 70.1486C90.71 70.2586 90.36 70.1086 90.26 69.7986Z" fill="#B5FF00"/>
<path d="M93.46 36.7086C93.26 36.1586 93.54 35.5586 94.09 35.3586C94.64 35.1586 95.24 35.4386 95.45 35.9886C95.65 36.5386 95.36 37.1386 94.82 37.3386C94.27 37.5386 93.65 37.2586 93.46 36.7086Z" fill="#B5FF00"/>
<path d="M76.2 23.7486C76.08 23.4486 76.25 23.1086 76.55 22.9986C76.86 22.8886 77.2 23.0486 77.31 23.3486C77.41 23.6486 77.26 23.9886 76.95 24.0986C76.65 24.2086 76.3 24.0486 76.2 23.7486Z" fill="#B5FF00"/>
<path d="M57.63 19.6286C57.54 19.3886 57.66 19.1186 57.91 19.0286C58.15 18.9386 58.43 19.0686 58.52 19.3086C58.6 19.5486 58.47 19.8186 58.23 19.9086C57.99 19.9986 57.71 19.8686 57.63 19.6286Z" fill="#B5FF00"/>
<path d="M69.47 21.8286C69.38 21.5886 69.5 21.3186 69.75 21.2286C70 21.1386 70.27 21.2686 70.36 21.5086C70.44 21.7486 70.31 22.0186 70.07 22.1086C69.83 22.1986 69.56 22.0686 69.47 21.8286Z" fill="#B5FF00"/>
<path d="M59.02 35.0886C58.93 34.8486 59.05 34.5786 59.3 34.4886C59.54 34.3986 59.82 34.5286 59.91 34.7686C59.99 35.0086 59.86 35.2786 59.62 35.3686C59.38 35.4586 59.11 35.3286 59.02 35.0886Z" fill="#B5FF00"/>
<path d="M20.49 74.4986C20.41 74.2586 20.54 73.9886 20.78 73.8986C21.02 73.8086 21.29 73.9386 21.38 74.1786C21.47 74.4186 21.35 74.6886 21.1 74.7786C20.86 74.8686 20.58 74.7386 20.49 74.4986Z" fill="#B5FF00"/>
<path d="M22.89 69.3886C22.8 69.1486 22.92 68.8786 23.18 68.7886C23.42 68.6986 23.69 68.8286 23.78 69.0686C23.87 69.3086 23.75 69.5786 23.5 69.6686C23.25 69.7586 22.98 69.6286 22.89 69.3886Z" fill="#B5FF00"/>
<path d="M35.19 74.9086C35.11 74.6686 35.24 74.3986 35.48 74.3086C35.72 74.2186 35.99 74.3486 36.08 74.5886C36.17 74.8286 36.05 75.0986 35.8 75.1886C35.56 75.2786 35.28 75.1486 35.19 74.9086Z" fill="#B5FF00"/>
<path d="M89.78 23.1986C89.64 22.8286 89.84 22.4286 90.21 22.2986C90.57 22.1686 90.98 22.3586 91.11 22.7186C91.25 23.0786 91.05 23.4886 90.68 23.6186C90.32 23.7486 89.91 23.5586 89.78 23.1986Z" fill="#B5FF00"/>
<path d="M53.08 38.7386C52.94 38.3686 53.14 37.9686 53.51 37.8386C53.88 37.7086 54.28 37.8986 54.41 38.2586C54.55 38.6286 54.35 39.0286 53.99 39.1586C53.62 39.2886 53.22 39.0986 53.08 38.7386Z" fill="#B5FF00"/>
<path d="M72.42 38.8386C72.32 38.5386 72.47 38.1986 72.78 38.0886C73.08 37.9786 73.43 38.1386 73.53 38.4386C73.65 38.7386 73.48 39.0786 73.18 39.1886C72.87 39.2986 72.53 39.1486 72.42 38.8386Z" fill="#B5FF00"/>
</g>
<defs>
<clipPath id="clip0_63_4519">
<rect width="88" height="88" fill="white"/>
</clipPath>
</defs>
</svg>
