<svg width="166" height="170" viewBox="0 0 166 170" fill="none" xmlns="http://www.w3.org/2000/svg">
<path d="M139.18 29.3753L52.8259 4.61353C44.9293 2.34922 36.5653 6.98543 34.301 14.882L9.53924 101.237C7.27493 109.133 11.9111 117.497 19.8077 119.761L106.162 144.523C114.059 146.788 122.423 142.151 124.687 134.255L149.449 47.9002C151.713 40.0036 147.077 31.6396 139.18 29.3753ZM115.089 131.503C114.314 134.207 111.619 135.701 108.914 134.925L22.5598 110.164C19.8557 109.388 18.3616 106.693 19.137 103.989L43.8988 17.6341C44.6742 14.93 47.3696 13.4359 50.0737 14.2113L136.428 38.9731C139.132 39.7485 140.627 42.4439 139.851 45.148L115.089 131.503Z" fill="#00FFF0"/>
<path d="M127.039 61.6572C123.691 62.0713 120.244 62.0172 116.747 61.4678C120.767 60.4358 124.321 58.0064 126.637 54.5762C122.887 55.5342 118.933 55.8569 114.946 55.4831C112.815 51.4645 109.066 48.2463 104.293 46.8775C95.1139 44.2455 85.5757 49.3832 82.9983 58.3716C82.6343 59.6411 82.4299 60.9289 82.367 62.2024C68.7582 57.5307 58.3563 47.5685 52.9691 35.4032C50.8465 37.3913 49.2403 39.9259 48.3812 42.922C46.7685 48.5461 48.2742 54.3637 51.902 58.5778C49.2053 57.6808 46.8447 56.2345 44.9507 54.3587L44.8851 54.5872C42.6281 62.4584 46.488 70.6547 53.6504 74.3297C52.1447 74.3102 50.621 74.0656 49.1103 73.6324C48.0311 73.323 47.0229 72.9102 46.0618 72.4285C46.3327 79.4858 51.1231 85.9704 58.3558 88.1543C51.4123 90.9033 43.5094 91.4401 35.7144 89.2049C34.3686 88.819 33.0702 88.3642 31.8189 87.8406C37.8481 94.5568 45.8181 99.7274 55.2128 102.421C85.7962 111.191 109.608 91.2545 115.763 69.7865C115.967 69.0755 116.158 68.3609 116.326 67.6808C120.231 66.3275 123.863 64.2502 127.022 61.6663L127.039 61.6572Z" fill="#00FFF0"/>
<path d="M73.4647 121.037C73.3699 119.595 74.4614 118.328 75.9201 118.224C77.3787 118.12 78.6421 119.224 78.7496 120.67C78.8571 122.116 77.7529 123.379 76.2942 123.483C74.8355 123.587 73.5721 122.483 73.4647 121.037Z" fill="#00FFF0"/>
<path d="M67.6473 135.719C67.6042 135.294 67.9438 134.925 68.3774 134.898C68.7983 134.867 69.1626 135.178 69.2021 135.615C69.2452 136.04 68.9056 136.409 68.472 136.436C68.0511 136.467 67.6868 136.156 67.6473 135.719Z" fill="#00FFF0"/>
<path d="M95.7205 157.7C95.6773 157.276 96.0169 156.906 96.4505 156.879C96.8714 156.849 97.2321 157.172 97.2753 157.597C97.3184 158.021 96.9788 158.391 96.5452 158.418C96.1243 158.448 95.7636 158.125 95.7205 157.7Z" fill="#00FFF0"/>
<path d="M86.9222 156.758C86.8791 156.333 87.2187 155.964 87.6396 155.933C88.0732 155.906 88.4466 156.233 88.4771 156.654C88.4948 157.072 88.1806 157.449 87.747 157.475C87.3261 157.506 86.94 157.175 86.9222 156.758Z" fill="#00FFF0"/>
<path d="M103.047 115.904C102.994 115.133 103.568 114.473 104.339 114.42C105.11 114.366 105.77 114.94 105.836 115.715C105.89 116.486 105.303 117.142 104.545 117.199C103.774 117.253 103.088 116.672 103.047 115.904Z" fill="#00FFF0"/>
<path d="M63.7738 81.1893C63.7469 80.8518 63.9975 80.5527 64.3477 80.5295C64.6851 80.5026 64.9933 80.7696 65.0075 81.1034C65.0344 81.4408 64.7837 81.7399 64.4336 81.7632C64.0961 81.7901 63.788 81.5231 63.7738 81.1893Z" fill="#00FFF0"/>
<path d="M78.0077 88.2801C77.9808 87.9427 78.2314 87.6436 78.5816 87.6203C78.919 87.5934 79.2272 87.8604 79.2541 88.1978C79.2683 88.5317 79.0049 88.8271 78.6675 88.854C78.33 88.8809 78.0346 88.6176 78.0077 88.2801Z" fill="#00FFF0"/>
<path d="M59.9105 101.323C59.8836 100.986 60.1343 100.687 60.4844 100.663C60.8219 100.636 61.13 100.903 61.1569 101.241C61.1711 101.575 60.9078 101.87 60.5703 101.897C60.2328 101.924 59.9247 101.657 59.9105 101.323Z" fill="#00FFF0"/>
<path d="M55.2328 136.418C55.2059 136.081 55.4565 135.782 55.8067 135.758C56.1441 135.732 56.4523 135.999 56.4665 136.332C56.4934 136.67 56.2427 136.969 55.8926 136.992C55.5551 137.019 55.247 136.752 55.2328 136.418Z" fill="#00FFF0"/>
<path d="M103.293 97.4131C103.25 96.8924 103.65 96.4574 104.167 96.427C104.671 96.393 105.11 96.7799 105.157 97.2879C105.2 97.8086 104.8 98.2436 104.283 98.2739C103.779 98.3079 103.327 97.9174 103.293 97.4131Z" fill="#00FFF0"/>
<path d="M51.0406 103.794C50.9975 103.274 51.397 102.839 51.9141 102.808C52.4185 102.774 52.8698 103.165 52.9038 103.669C52.9468 104.19 52.5473 104.625 52.043 104.659C51.5259 104.689 51.0872 104.302 51.0406 103.794Z" fill="#00FFF0"/>
<path d="M75.5572 110.962C75.5394 110.544 75.8536 110.167 76.2872 110.14C76.7081 110.11 77.0979 110.428 77.112 110.858C77.1551 111.282 76.8155 111.652 76.3946 111.683C75.961 111.709 75.584 111.395 75.5572 110.962Z" fill="#00FFF0"/>
<path d="M116.843 88.3968C116.748 86.9544 117.84 85.6874 119.298 85.5836C120.77 85.4834 122.021 86.5839 122.128 88.0299C122.235 89.4759 121.131 90.7393 119.673 90.8431C118.214 90.9469 116.951 89.8427 116.843 88.3968Z" fill="#00FFF0"/>
<path d="M111.038 103.083C110.995 102.658 111.335 102.288 111.768 102.262C112.189 102.231 112.55 102.554 112.593 102.979C112.636 103.403 112.297 103.773 111.863 103.8C111.442 103.83 111.078 103.52 111.038 103.083Z" fill="#00FFF0"/>
<path d="M139.173 99.5949C139.156 99.1777 139.47 98.8006 139.903 98.7738C140.324 98.7434 140.71 99.0739 140.728 99.4912C140.771 99.9158 140.432 100.286 140.011 100.316C139.577 100.343 139.2 100.029 139.173 99.5949Z" fill="#00FFF0"/>
<path d="M139.111 125.064C139.068 124.64 139.408 124.27 139.841 124.243C140.262 124.213 140.623 124.536 140.666 124.96C140.709 125.385 140.369 125.755 139.949 125.785C139.515 125.812 139.142 125.485 139.111 125.064Z" fill="#00FFF0"/>
<path d="M130.317 124.108C130.274 123.684 130.613 123.314 131.034 123.283C131.468 123.257 131.845 123.571 131.872 124.004C131.889 124.422 131.575 124.799 131.142 124.825C130.721 124.856 130.331 124.538 130.317 124.108Z" fill="#00FFF0"/>
<path d="M146.438 83.2676C146.384 82.4965 146.958 81.8367 147.729 81.783C148.5 81.7293 149.16 82.3032 149.227 83.0779C149.28 83.849 148.694 84.5051 147.935 84.5625C147.164 84.6162 146.479 84.035 146.438 83.2676Z" fill="#00FFF0"/>
<path d="M129.227 60.5402C129.184 60.1157 129.524 59.7459 129.945 59.7155C130.378 59.6887 130.752 60.0156 130.782 60.4365C130.8 60.8538 130.486 61.2308 130.052 61.2576C129.631 61.2881 129.245 60.9575 129.227 60.5402Z" fill="#00FFF0"/>
<path d="M107.164 48.5531C107.138 48.2156 107.388 47.9165 107.738 47.8933C108.076 47.8664 108.384 48.1333 108.411 48.4708C108.425 48.8046 108.162 49.1001 107.824 49.127C107.487 49.1538 107.179 48.8869 107.164 48.5531Z" fill="#00FFF0"/>
<path d="M121.386 55.64C121.359 55.3025 121.61 55.0034 121.96 54.9802C122.31 54.9569 122.606 55.2203 122.632 55.5577C122.647 55.8915 122.383 56.187 122.046 56.2139C121.708 56.2408 121.413 55.9774 121.386 55.64Z" fill="#00FFF0"/>
<path d="M103.288 68.6825C103.262 68.345 103.512 68.0459 103.862 68.0227C104.2 67.9958 104.508 68.2627 104.535 68.6002C104.549 68.934 104.286 69.2295 103.948 69.2564C103.611 69.2832 103.315 69.0199 103.288 68.6825Z" fill="#00FFF0"/>
<path d="M40.0389 104.693C40.0247 104.359 40.288 104.064 40.6255 104.037C40.963 104.01 41.2584 104.273 41.2853 104.611C41.3122 104.948 41.0616 105.247 40.7114 105.27C40.3739 105.297 40.0658 105.03 40.0389 104.693Z" fill="#00FFF0"/>
<path d="M44.9333 99.0755C44.9064 98.738 45.1571 98.4389 45.5199 98.4193C45.8574 98.3924 46.1528 98.6558 46.1797 98.9932C46.2066 99.3307 45.956 99.6298 45.6058 99.653C45.2557 99.6763 44.9602 99.4129 44.9333 99.0755Z" fill="#00FFF0"/>
<path d="M58.5389 110.561C58.5247 110.227 58.788 109.931 59.1255 109.904C59.463 109.878 59.7584 110.141 59.7853 110.478C59.8122 110.816 59.5616 111.115 59.2114 111.138C58.8739 111.165 58.5658 110.898 58.5389 110.561Z" fill="#00FFF0"/>
<path d="M146.685 64.7759C146.642 64.2552 147.041 63.8202 147.558 63.7898C148.063 63.7558 148.514 64.1463 148.548 64.6507C148.595 65.1587 148.191 65.6064 147.674 65.6367C147.17 65.6707 146.719 65.2802 146.685 64.7759Z" fill="#00FFF0"/>
<path d="M94.4185 71.1543C94.3754 70.6336 94.775 70.1986 95.292 70.1682C95.8091 70.1379 96.2477 70.5247 96.2817 71.0291C96.3248 71.5498 95.9252 71.9848 95.4209 72.0188C94.9038 72.0491 94.4652 71.6623 94.4185 71.1543Z" fill="#00FFF0"/>
<path d="M118.948 78.3254C118.93 77.9081 119.244 77.5311 119.678 77.5043C120.099 77.4739 120.485 77.8044 120.503 78.2217C120.546 78.6462 120.206 79.016 119.785 79.0464C119.352 79.0732 118.974 78.759 118.948 78.3254Z" fill="#00FFF0"/>
</svg>
