<svg width="49" height="51" viewBox="0 0 49 51" fill="none" xmlns="http://www.w3.org/2000/svg">
<g opacity="0.9">
<path d="M16.4105 12.2553C13.1797 17.0424 14.4413 23.5422 19.2284 26.7731C24.0155 30.0039 30.5154 28.7423 33.7462 23.9552C36.9771 19.1681 35.7155 12.6682 30.9283 9.43739C26.1412 6.20654 19.6414 7.46815 16.4105 12.2553Z" fill="#B5FF00"/>
<path d="M21.39 29.1403C21.5262 29.6612 21.2061 30.1853 20.6756 30.3234C20.1489 30.4558 19.6054 30.1394 19.4691 29.6185C19.3329 29.0976 19.653 28.5735 20.1835 28.4354C20.7102 28.303 21.2537 28.6193 21.39 29.1403Z" fill="#B5FF00"/>
<path d="M22.5459 23.4274C22.5856 23.5804 22.49 23.7346 22.337 23.7743C22.184 23.814 22.0202 23.7203 21.9805 23.5673C21.9407 23.4143 22.0364 23.2602 22.1893 23.2205C22.3423 23.1807 22.5061 23.2745 22.5459 23.4274Z" fill="#B5FF00"/>
<path d="M12.4156 26.5486C12.4554 26.7016 12.3558 26.8615 12.2029 26.9013C12.0499 26.941 11.8861 26.8473 11.8463 26.6943C11.8066 26.5413 11.9022 26.3872 12.0591 26.3416C12.2121 26.3019 12.372 26.4014 12.4156 26.5486Z" fill="#B5FF00"/>
<path d="M10.7222 17.3063C10.7619 17.4593 10.6663 17.6135 10.5133 17.6532C10.3603 17.6929 10.1965 17.5992 10.1568 17.4462C10.117 17.2932 10.2126 17.1391 10.3656 17.0994C10.5186 17.0596 10.6824 17.1534 10.7222 17.3063Z" fill="#B5FF00"/>
<path d="M14.0298 17.0659C14.0695 17.2188 13.9739 17.373 13.8209 17.4127C13.664 17.4582 13.5041 17.3587 13.4644 17.2057C13.4246 17.0528 13.5203 16.8986 13.6732 16.8589C13.8262 16.8191 13.99 16.9129 14.0298 17.0659Z" fill="#B5FF00"/>
<path d="M10.8382 32.9612C10.912 33.2381 10.7403 33.5175 10.4576 33.5875C10.1749 33.6574 9.89159 33.4914 9.81775 33.2145C9.74391 32.9376 9.91565 32.6582 10.1984 32.5883C10.4811 32.5183 10.7643 32.6843 10.8382 32.9612Z" fill="#B5FF00"/>
<path d="M18.7062 40.071C18.7459 40.224 18.6503 40.3781 18.4973 40.4179C18.3443 40.4576 18.1805 40.3639 18.1408 40.2109C18.101 40.0579 18.1967 39.9038 18.3496 39.864C18.5065 39.8185 18.6664 39.918 18.7062 40.071Z" fill="#B5FF00"/>
<path d="M27.6439 42.9662C27.678 43.0901 27.6057 43.2096 27.476 43.2398C27.3521 43.2739 27.2268 43.1978 27.1927 43.0738C27.1586 42.9499 27.2347 42.8246 27.3606 42.8002C27.4845 42.7661 27.6098 42.8422 27.6439 42.9662Z" fill="#B5FF00"/>
<path d="M21.9279 41.3287C21.962 41.4527 21.8859 41.5779 21.7562 41.6081C21.6322 41.6422 21.507 41.5661 21.4729 41.4421C21.4388 41.3182 21.5149 41.1929 21.6446 41.1627C21.7646 41.1344 21.8938 41.2048 21.9279 41.3287Z" fill="#B5FF00"/>
<path d="M27.7217 35.3985C27.7558 35.5224 27.6797 35.6477 27.55 35.6779C27.426 35.712 27.3008 35.6359 27.2667 35.5119C27.2326 35.388 27.3087 35.2627 27.4345 35.2383C27.5584 35.2042 27.6876 35.2746 27.7217 35.3985Z" fill="#B5FF00"/>
<path d="M48.6017 18.1441C48.6358 18.2681 48.5597 18.3933 48.43 18.4235C48.306 18.4576 48.1808 18.3815 48.1467 18.2576C48.1126 18.1336 48.1887 18.0084 48.3184 17.9782C48.4443 17.9538 48.5734 18.0241 48.6017 18.1441Z" fill="#B5FF00"/>
<path d="M47.1732 20.5104C47.2073 20.6343 47.1311 20.7595 47.0014 20.7897C46.8775 20.8239 46.7522 20.7477 46.7181 20.6238C46.684 20.4998 46.7601 20.3746 46.8899 20.3444C47.0138 20.3103 47.1391 20.3864 47.1732 20.5104Z" fill="#B5FF00"/>
<path d="M41.3909 17.2386C41.425 17.3626 41.3489 17.4878 41.2192 17.518C41.0952 17.5521 40.97 17.476 40.9359 17.3521C40.9018 17.2281 40.9779 17.1029 41.1076 17.0727C41.2316 17.0386 41.3568 17.1147 41.3909 17.2386Z" fill="#B5FF00"/>
<path d="M27.0822 22.3509C27.1163 22.4749 27.0402 22.6001 26.9104 22.6303C26.7865 22.6644 26.6613 22.5883 26.6272 22.4644C26.5931 22.3404 26.6692 22.2152 26.7989 22.185C26.9189 22.1566 27.0481 22.227 27.0822 22.3509Z" fill="#B5FF00"/>
<path d="M11.993 39.6868C12.0384 39.8688 11.929 40.0558 11.7373 40.103C11.5514 40.1542 11.3587 40.0409 11.3133 39.8589C11.268 39.6769 11.3773 39.49 11.5632 39.4388C11.7491 39.3877 11.9419 39.5009 11.9872 39.6829L11.993 39.6868Z" fill="#B5FF00"/>
<path d="M30.8182 33.9139C30.8636 34.0959 30.7542 34.2828 30.5625 34.3301C30.3766 34.3812 30.1839 34.268 30.1385 34.086C30.0932 33.904 30.2064 33.7112 30.3884 33.6659C30.5743 33.6147 30.7671 33.728 30.8124 33.91L30.8182 33.9139Z" fill="#B5FF00"/>
<path d="M21.2989 32.9394C21.3387 33.0924 21.2431 33.2465 21.0901 33.2863C20.9371 33.326 20.7733 33.2323 20.7335 33.0793C20.6938 32.9263 20.7894 32.7722 20.9424 32.7324C21.0993 32.6869 21.2592 32.7864 21.2989 32.9394Z" fill="#B5FF00"/>
</g>
</svg>
