<svg width="88" height="88" viewBox="0 0 88 88" fill="none" xmlns="http://www.w3.org/2000/svg">
<g clip-path="url(#clip0_63_4524)">
<path d="M38.91 58.9085C38.53 57.8585 39.07 56.6885 40.13 56.2985C41.19 55.9185 42.37 56.4585 42.75 57.5085C43.14 58.5685 42.59 59.7285 41.53 60.1185C40.47 60.4985 39.29 59.9585 38.91 58.9085Z" fill="#B5FF00"/>
<path d="M59.79 48.7985C59.59 48.2385 59.87 47.6185 60.44 47.4185C61 47.2185 61.62 47.4985 61.83 48.0585C62.03 48.6185 61.74 49.2385 61.18 49.4385C60.61 49.6385 59.99 49.3585 59.79 48.7985Z" fill="#B5FF00"/>
<path d="M35.31 33.6185C35.22 33.3685 35.35 33.0985 35.59 33.0085C35.84 32.9185 36.12 33.0485 36.21 33.2985C36.29 33.5485 36.16 33.8185 35.92 33.9085C35.67 33.9985 35.4 33.8685 35.31 33.6185Z" fill="#B5FF00"/>
<path d="M56.04 35.0185C55.9 34.6485 56.1 34.2285 56.48 34.0985C56.84 33.9585 57.26 34.1585 57.4 34.5285C57.54 34.8985 57.34 35.3185 56.96 35.4485C56.6 35.5885 56.17 35.3885 56.04 35.0185Z" fill="#B5FF00"/>
<path d="M38.32 50.9785C38.21 50.6685 38.37 50.3285 38.68 50.2085C38.99 50.0985 39.34 50.2585 39.45 50.5685C39.57 50.8785 39.4 51.2185 39.1 51.3385C38.78 51.4485 38.44 51.2885 38.32 50.9785Z" fill="#B5FF00"/>
<path d="M68.27 28.8885C67.89 27.8285 68.43 26.6685 69.49 26.2785C70.56 25.8985 71.73 26.4385 72.11 27.4885C72.5 28.5485 71.95 29.7085 70.89 30.0985C69.83 30.4785 68.65 29.9385 68.27 28.8885Z" fill="#B5FF00"/>
<path d="M62.99 37.5685C62.87 37.2585 63.04 36.9185 63.35 36.7985C63.66 36.6885 64 36.8485 64.12 37.1585C64.24 37.4685 64.07 37.8085 63.76 37.9285C63.45 38.0385 63.11 37.8785 62.99 37.5685Z" fill="#B5FF00"/>
<path d="M83.14 28.9985C83.03 28.6885 83.19 28.3485 83.5 28.2285C83.81 28.1185 84.16 28.2785 84.27 28.5885C84.39 28.8985 84.22 29.2385 83.92 29.3585C83.6 29.4685 83.26 29.3085 83.14 28.9985Z" fill="#B5FF00"/>
<path d="M88.52 47.9185C88.4 47.6085 88.57 47.2685 88.88 47.1485C89.19 47.0385 89.53 47.1985 89.65 47.5085C89.77 47.8185 89.6 48.1585 89.3 48.2785C88.98 48.3885 88.64 48.2285 88.52 47.9185Z" fill="#B5FF00"/>
<path d="M81.79 49.0885C81.67 48.7785 81.84 48.4385 82.14 48.3185C82.46 48.2085 82.8 48.3685 82.92 48.6785C83.03 48.9885 82.87 49.3285 82.56 49.4485C82.25 49.5585 81.9 49.3985 81.79 49.0885Z" fill="#B5FF00"/>
<path d="M85.06 15.3185C84.86 14.7585 85.14 14.1385 85.71 13.9385C86.27 13.7385 86.89 14.0185 87.1 14.5785C87.3 15.1385 87.01 15.7585 86.45 15.9585C85.89 16.1585 85.26 15.8785 85.06 15.3185Z" fill="#B5FF00"/>
<path d="M82.53 17.8485C82.41 17.5385 82.58 17.1985 82.88 17.0785C83.2 16.9685 83.54 17.1285 83.66 17.4385C83.77 17.7485 83.61 18.0885 83.3 18.2085C82.99 18.3185 82.64 18.1585 82.53 17.8485Z" fill="#B5FF00"/>
<path d="M63.59 13.6385C63.5 13.3885 63.63 13.1185 63.87 13.0285C64.12 12.9385 64.4 13.0685 64.49 13.3185C64.57 13.5685 64.44 13.8385 64.2 13.9285C63.95 14.0185 63.67 13.8885 63.59 13.6385Z" fill="#B5FF00"/>
<path d="M75.66 15.8785C75.57 15.6285 75.7 15.3585 75.94 15.2685C76.2 15.1785 76.47 15.3085 76.56 15.5585C76.64 15.8085 76.51 16.0785 76.27 16.1685C76.02 16.2585 75.75 16.1285 75.66 15.8785Z" fill="#B5FF00"/>
<path d="M65 29.4185C64.91 29.1685 65.04 28.8985 65.28 28.8085C65.53 28.7185 65.81 28.8485 65.9 29.0885C65.98 29.3385 65.85 29.6085 65.61 29.6985C65.36 29.7885 65.09 29.6585 65 29.4185Z" fill="#B5FF00"/>
<path d="M96.39 17.2785C96.25 16.9085 96.45 16.4885 96.83 16.3585C97.19 16.2185 97.62 16.4185 97.75 16.7885C97.89 17.1585 97.69 17.5685 97.31 17.7085C96.95 17.8485 96.52 17.6485 96.39 17.2785Z" fill="#B5FF00"/>
<path d="M43.85 17.3985C43.71 17.0285 43.91 16.6085 44.29 16.4785C44.67 16.3385 45.08 16.5385 45.21 16.9085C45.35 17.2785 45.15 17.6985 44.79 17.8285C44.41 17.9685 44 17.7685 43.86 17.3985H43.85Z" fill="#B5FF00"/>
<path d="M63.59 17.4985C63.48 17.1885 63.64 16.8485 63.95 16.7285C64.26 16.6185 64.61 16.7785 64.71 17.0885C64.83 17.3985 64.66 17.7385 64.36 17.8585C64.04 17.9685 63.7 17.8085 63.58 17.4985H63.59Z" fill="#B5FF00"/>
<path d="M16.49 18.8585C12.38 18.8585 9 22.2385 9 26.3485V61.3085C9 65.4285 12.38 68.7985 16.49 68.7985H71.43C75.53 68.7985 78.92 65.4185 78.92 61.3085V26.3485C78.92 22.2285 75.54 18.8585 71.43 18.8585H16.49ZM16.49 23.8485H71.43C72.83 23.8485 73.93 24.9385 73.93 26.3485V61.3085C73.93 62.7085 72.84 63.8085 71.43 63.8085H16.49C15.09 63.8085 13.99 62.7185 13.99 61.3085V26.3485C13.99 24.9485 15.08 23.8485 16.49 23.8485ZM34.03 28.7485V58.8085L59 43.7685L34.03 28.7485ZM39.02 37.5685L49.32 43.7685L39.02 49.9685V37.5585V37.5685Z" fill="#B5FF00"/>
</g>
<defs>
<clipPath id="clip0_63_4524">
<rect width="88" height="88" fill="white"/>
</clipPath>
</defs>
</svg>
